<?xml version="1.0" encoding="utf-8"?>
<!-- Generator: Adobe Illustrator 16.0.0, SVG Export Plug-In . SVG Version: 6.00 Build 0)  -->
<!DOCTYPE svg PUBLIC "-//W3C//DTD SVG 1.1//EN" "http://www.w3.org/Graphics/SVG/1.1/DTD/svg11.dtd">
<svg version="1.1" id="Layer_1" xmlns="http://www.w3.org/2000/svg" xmlns:xlink="http://www.w3.org/1999/xlink" x="0px" y="0px"
	 width="250px" height="250px" viewBox="0 0 250 250" enable-background="new 0 0 250 250" xml:space="preserve">
<path fill="none" stroke="#000000" stroke-miterlimit="10" d="M243.5,233.114c0,6.288-5.098,11.386-11.386,11.386H16.886
	c-6.288,0-11.386-5.098-11.386-11.386V17.886C5.5,11.598,10.598,6.5,16.886,6.5h215.229c6.288,0,11.386,5.098,11.386,11.386V233.114
	z"/>
<path fill-rule="evenodd" clip-rule="evenodd" d="M223.34,138.613c0.849,0.117,1.376,0.191,1.72,0.239
	c-4.963,5.217-9.533,10.809-14.927,15.44c-4.337,3.725-9.515,6.585-14.596,9.309c-10.801,5.795-22.235,10.096-34.691,8.488
	c-6.508-0.839-12.145,0.686-17.854,2.955c-1.192,0.474-2.045,1.775-3.084,2.666c-3.408,2.928-6.854,5.814-10.229,8.776
	c-1.102,0.969-2.447,1.962-2.958,3.235c-1.195,2.987-3.385,4.409-6.205,5.633c-5.281,2.287-10.371,5.014-15.566,7.504
	c-10.4,4.983-21.066,8.27-32.734,4.974c-0.411-0.115-0.884-0.017-2.382-0.017c1.938,1.432,3.069,2.267,5.18,3.826
	c-2.153-0.212-3.594,0.085-4.333-0.5c-4.632-3.668-10.369-6.33-11.914-12.917c-0.858-3.658-1.775-7.342-3.119-10.837
	c-1.575-4.095-3.448-8.104-5.563-11.945c-1.37-2.49-3.402-4.616-5.138-6.905c-0.342,0.42-0.684,0.841-1.026,1.261
	c-0.665,0.579-1.24,1.376-2.013,1.7c-4.37,1.832-8.942,3.244-13.152,5.379c-5.881,2.983-10.199,0.527-10.519-6.032
	c-0.438-9.024,5-14.724,10.928-20.104c5.563-5.048,12.392-7.979,19.267-10.834c3.538-1.47,6.776-3.655,10.159-5.501
	c3.513-1.916,6.721-4.185,10.908-5.066c1.788-0.377,3.352-4.225,4.094-6.764c3.922-13.432,8.16-26.797,14.914-39.051
	c3.614-6.556,8.952-12.161,13.535-18.179c1.516-1.99,2.762-4.411,4.725-5.792c5.777-4.069,11.801-7.8,17.833-11.497
	c3.312-2.029,6.748-3.912,10.288-5.505c2.741-1.231,5.707-1.978,8.613-2.807c2.06-0.588,4.944,0.456,5.413-3.053
	c0.046-0.342,1.044-0.812,1.587-0.796c13.709,0.417,27.837-1.052,40.564,5.264c7.371,3.658,13.938,8.999,20.685,13.838
	c6.133,4.401,12.126,8.977,16.341,15.516c1.69,2.629,2.908,4.894,2.229,8.218c-0.461,2.239,1.346,5.402,0.326,6.975
	c-2.807,4.321,0.238,7.698,0.729,11.462c0.178,1.374,0.375,2.754,0.412,4.136c0.119,4.713,0.498,9.454,0.14,14.135
	c-0.28,3.66-1.1,7.406-2.423,10.825C227.866,130.504,225.461,134.447,223.34,138.613z M187.949,113.242l-0.148,0.144
	c2.296,0.555,2.982,1.932,3.138,4.342c0.215,3.326,1.302,6.588,1.865,9.904c0.687,4.047,1.547,8.105,1.736,12.187
	c0.291,6.286,0.076,12.596,0.076,19.123c0.713-0.126,1.551-0.044,2.099-0.404c5.139-3.37,10.451-6.544,15.234-10.369
	c2.234-1.789,3.419-4.893,5.078-7.399c-0.29-0.204-0.578-0.41-0.87-0.616c0.177,0.307,0.352,0.616,0.528,0.921
	c0.407-0.333,0.927-0.598,1.206-1.018c5.448-8.196,9.223-16.913,8.819-27.06c-0.129-3.193,0.602-6.423,0.436-9.61
	c-0.138-2.581-1.107-5.107-1.573-7.682c-0.769-4.23-1.479-8.458-4.984-11.652c-0.261,0.64-0.442,1.084-0.298,0.734
	c-4.006-4.807-8.279-9.94-12.555-15.073l-0.097,0.073c1.119,0.063,2.237,0.127,3.536,0.202c-0.625-1.557-1.102-2.741-1.575-3.925
	c3.107,0.906,4.793,3.032,5.638,6.109c0.379,1.386,1.344,2.611,2.04,3.909c1.313-4.17-4.788-15.089-8.237-16.475
	c0.179,0.97,0.367,1.791,0.474,2.624c0.13,0.99,0.193,1.988,0.285,2.984c-2.173-2.755-4.765-5.282-6.425-8.317
	c-2.801-5.115-6.062-9.518-11.559-11.944c-1.956-0.863-3.696-2.394-5.714-2.9c-3.81-0.954-7.748-1.386-11.632-2.037
	c-0.081,0.43-0.159,0.861-0.241,1.289c1.469,0.897,2.936,1.795,4.402,2.691c-0.237,0.4-0.477,0.801-0.715,1.2
	c-1.64-0.854-3.379-1.566-4.905-2.589c-3.225-2.16-4.566-2.049-5.363-0.109c-2.757-0.595-5.419-1.817-7.933-1.562
	c-3.921,0.399-7.755,1.75-11.6,2.791c-5.794,1.568-11.587,3.148-17.34,4.855c-4.311,1.28-9.004,2.046-10.845,7.075
	c-5.862-3.945-29.396,25.874-30.912,38.435c1.2-0.32,2.413-0.644,3.625-0.968l-0.074-0.02c-2.352,2.181-4.705,4.36-6.967,6.458
	c0.623-2.388,1.273-4.878,1.923-7.367c-1.198,0.514-1.787,1.272-2.094,2.13c-3.522,9.852-7.061,19.698-10.411,29.607
	c-0.386,1.142,0.335,2.658,0.585,4.273c2.607-1.098,4.481-2.504,6.418-2.598c9.038-0.434,16.589,2.931,22.409,9.896
	c5.479,6.557,12.717,9.132,20.954,9.451c0.608,0.022,1.254-0.927,1.882-1.426c-0.525-0.564-0.955-1.298-1.597-1.654
	c-1.004-0.557-2.15-0.859-3.236-1.268c0.054-0.234,0.107-0.469,0.16-0.704c1.491-0.214,2.982-0.429,5.144-0.737
	c-1.375-1.142-2.197-1.824-3.256-2.705c1.545-0.543,2.67-0.938,3.262-1.148c0.797,2.143,1.493,4.014,2.275,6.117
	c-2.332,1.721-2.084,2.736,1.111,4.78c3.683,2.354,7.09,5.145,10.613,7.747c-1.521,0.686-2.877,0.6-4.206,0.358
	c-1.841-0.334-3.659-1.099-5.494-1.125c-6.141-0.089-11.967-1.023-17.08-4.77c-1.815-1.329-3.884-2.318-5.68-3.672
	c-5-3.772-10.477-7.133-14.691-11.657c-3.344-3.59-6.75-4.693-11.02-3.902c-3.968,0.733-7.585,1.228-10.743,5.336
	c-2.451,3.186-8.491,3.525-12.84,5.361c-6.556,2.765-13.073,5.633-19.506,8.67c-1.979,0.936-3.646,2.547-5.429,3.889
	c-3.315,2.49-6.609,5.006-10.801,8.185c1.625-0.136,2.154-0.028,2.506-0.23c3.931-2.254,7.667-0.878,11.112,0.952
	c3.433,1.821,6.884,3.869,9.722,6.478c3.069,2.818,6.027,6.089,7.956,9.733c2.089,3.947,3.076,8.516,4.294,12.883
	c2.538,9.097,8.815,13.77,18.064,13.261c0.598-0.033,1.208,0.241,1.819,0.331c2.977,0.434,5.945,1.047,8.938,1.22
	c2.623,0.155,5.381-0.051,4.961-2.737c4.626-2.743,8.579-5.087,12.696-7.526c-0.172-0.141,0.871,0.862,0.981,0.771
	c1.955-1.667,5.653-0.626,6.445-4.132c0.1-0.438,0.929-0.961,1.46-1.011c5.932-0.548,10.025-3.581,12.518-8.94
	c0.222-0.476,0.835-0.938,1.354-1.079c3.046-0.822,5.633-1.635,4.385-5.932c-0.355-1.225,1.269-3.017,1.965-4.554
	c0.142-0.313,0.198-0.666,0.279-0.946c-0.985-0.657-1.878-1.254-2.859-1.909c1.868-1.019,4.958-2.225,4.847-2.716
	c-0.854-3.823,3.789-4.333,4.24-7.306c0.113,1.485,0.227,2.971,0.289,3.782c1.199-1.313,2.303-3.558,3.901-3.997
	c1.69-0.461,3.849,0.8,6.338,1.447c-0.019,0.017,0.466-0.69,1.118-0.924c1.041-0.371,2.194-0.429,3.301-0.615
	c-0.339,0.929-0.61,1.893-1.04,2.782c-0.605,1.258-1.324,2.459-1.569,2.905c2.377,0.508,4.45,0.67,6.302,1.396
	c5.747,2.252,11.415,1.086,17.115-0.018c2.712-0.522,5.423-1.031,8.135-1.546c0.065,0.264,0.128,0.526,0.193,0.791
	c-1.644,0.783-3.286,1.564-4.928,2.345c0.161,0.346,0.323,0.69,0.483,1.033c2.141-0.876,4.351-1.618,6.4-2.669
	c2.251-1.158,4.452-2.502,4.261-5.625c-0.139-2.25-1.629-4.521,0.041-6.767c0.037-0.05-0.095-0.223-0.205-0.457
	c-0.821-0.178-1.722-0.369-2.462-0.527c0.93-1.101,2.673-2.324,2.492-3.091c-0.993-4.205,2.138-9.28-2.56-12.735
	c-0.231-0.17,0.045-1.137,0.194-1.706c0.559-2.181,1.161-4.353,1.802-6.726c-1.647,0-2.538,0-3.067,0
	c0.631-2.086,1.224-4.049,1.816-6.011c-0.398-0.163-0.794-0.325-1.189-0.487c-1.441,1.037-2.877,2.074-4.288,3.09
	C185.91,119.54,186.93,116.392,187.949,113.242z M40.431,168.529c-0.205-0.778-0.197-1.231-0.419-1.48
	c-0.316-0.357-0.792-0.787-1.214-0.802c-5.183-0.184-10.375-0.47-15.548-0.265c-0.93,0.037-2.35,2.101-2.542,3.376
	c-0.393,2.612,0.376,5.237,3.394,5.884c1.421,0.306,3.203-0.082,4.568-0.708c2.226-1.022,4.191-2.601,6.369-3.746
	C36.767,169.878,38.649,169.264,40.431,168.529z M227.542,83.872c0.287-0.11,0.573-0.221,0.862-0.331
	c0.046-0.349,0.236-0.769,0.108-1.033c-2.865-5.963-5.652-11.968-8.771-17.796c-0.509-0.951-2.497-1.111-4.445-1.896
	C219.792,70.546,223.668,77.21,227.542,83.872z"/>
<path fill-rule="evenodd" clip-rule="evenodd" d="M187.949,113.242c-0.887,0.762-1.771,1.524-3.101,2.667c0-2.676,0-4.586,0-6.924
	c-1.654,0.847-2.524,1.293-3.676,1.885c1.133-6.786,1.108-6.833-1.949-6.877c-1.424-2.243-3.11-3.857-3.474-5.726
	c-0.498-2.593-0.791-4.554-4.298-3.406c0.27-2.349,0.498-4.323,0.726-6.296l-0.087,0.06c0.323,0.183,0.756,0.288,0.956,0.561
	c3.066,4.205,6.164,8.387,9.114,12.67c1.329,1.929,2.179,4.207,3.614,6.038c0.448,0.573,2.105,0.196,3.622,0.276
	c-0.478,1.554-1.036,3.385-1.597,5.216L187.949,113.242z"/>
<path fill-rule="evenodd" clip-rule="evenodd" d="M161.016,73.517c-4.352-4.073-8.807-8.247-13.36-12.51
	c2.592-3.622,2.598-5.254-0.632-6.717c0.984-0.889,3.912-1.761,0.736-2.563c0.703-2.257,1.354-4.345,2.005-6.43
	c0.169,0.098,0.342,0.195,0.511,0.293c0.375,4.487,0.736,8.976,1.142,13.461c0.044,0.462,0.266,0.98,0.569,1.334
	c2.492,2.936,5.158,5.736,7.482,8.8C160.386,70.398,160.561,72.173,161.016,73.517z"/>
<path fill-rule="evenodd" clip-rule="evenodd" d="M207.736,69.713c-1.765-0.507-3.534-1.013-5.573-1.597
	c-0.189,0.987-0.354,1.831-0.737,3.788c-0.482-1.923-0.685-2.716-0.878-3.512c-0.143-0.582-0.169-1.615-0.429-1.676
	c-1.64-0.389-3.346-0.487-4.996-0.831c-1.348-0.281-2.651-0.772-3.974-1.17c-0.196,0.373-0.392,0.748-0.59,1.122
	c-1.021-1.459-2.041-2.919-3.063-4.377c0.152-0.312,0.306-0.624,0.458-0.936c6.557,3.091,13.113,6.184,19.679,9.269
	C207.64,69.787,207.736,69.713,207.736,69.713z"/>
<path fill-rule="evenodd" clip-rule="evenodd" d="M172.178,88.565c-1.315-0.092-2.632-0.184-4.139-0.288
	c-0.3-1.663-0.714-3.965-1.13-6.268c-0.406,0.05-0.81,0.101-1.214,0.151c-0.174,0.743-0.342,1.486-0.516,2.23
	c-0.187,0-0.379-0.001-0.568-0.002c-0.234-1.961-0.468-3.923-0.702-5.885c0.171-0.164,0.342-0.329,0.513-0.493
	c2.547,3.546,5.091,7.092,7.652,10.625C172.091,88.625,172.178,88.565,172.178,88.565z"/>
<path fill-rule="evenodd" clip-rule="evenodd" d="M185.447,62.01c-2.674-0.525-4.868-0.844-6.99-1.434
	c-0.743-0.207-1.376-1.018-1.903-1.68c-0.152-0.189,0.246-0.819,0.391-1.247c0.696,0.279,1.377,0.721,2.097,0.803
	c1.188,0.135,2.402,0.036,3.605,0.036c0.226-0.377,0.452-0.754,0.68-1.132C184.08,59.008,184.832,60.66,185.447,62.01z"/>
<path fill-rule="evenodd" clip-rule="evenodd" d="M134.242,160.086c-1.538,1.871-2.976,3.621-5.063,6.161
	c0.887-3.429,1.531-5.926,2.332-9.021C132.93,158.713,133.669,159.484,134.242,160.086z"/>
<path fill-rule="evenodd" clip-rule="evenodd" d="M92.645,93.124c-0.34-1.962-0.681-3.924-1.187-6.833
	c1.943,1.117,2.878,1.655,4.339,2.497c-1.044,1.373-2.154,2.833-3.245,4.304C92.57,93.104,92.645,93.124,92.645,93.124z"/>
<path fill-rule="evenodd" clip-rule="evenodd" d="M165.58,60.795c-0.668-2.358-1.333-4.717-1.999-7.076
	c0.53-0.148,1.06-0.297,1.587-0.445c0.675,2.373,1.352,4.746,2.027,7.119C166.655,60.526,166.117,60.661,165.58,60.795z"/>
<path fill-rule="evenodd" clip-rule="evenodd" d="M162.724,60.925c-0.712,0.846-1.178,1.398-1.646,1.951
	c-0.734-0.843-1.86-1.598-2.075-2.557c-0.146-0.645,0.994-1.579,1.559-2.383C161.207,58.83,161.854,59.724,162.724,60.925z"/>
</svg>
