<?xml version="1.0" encoding="utf-8"?>
<!-- Generator: Adobe Illustrator 16.0.0, SVG Export Plug-In . SVG Version: 6.00 Build 0)  -->
<!DOCTYPE svg PUBLIC "-//W3C//DTD SVG 1.1//EN" "http://www.w3.org/Graphics/SVG/1.1/DTD/svg11.dtd">
<svg version="1.1" id="Layer_1" xmlns="http://www.w3.org/2000/svg" xmlns:xlink="http://www.w3.org/1999/xlink" x="0px" y="0px"
	 width="250px" height="250px" viewBox="0 0 250 250" enable-background="new 0 0 250 250" xml:space="preserve">
<path fill="none" stroke="#000000" stroke-miterlimit="10" d="M243.5,233.114c0,6.288-5.098,11.386-11.387,11.386H16.886
	c-6.288,0-11.386-5.098-11.386-11.386V17.886C5.5,11.598,10.598,6.5,16.886,6.5h215.229c6.287,0,11.386,5.098,11.386,11.386
	L243.5,233.114L243.5,233.114z"/>
<path fill-rule="evenodd" clip-rule="evenodd" d="M207.822,220.39c-3.523-0.531-5.973-0.958-8.436-1.261
	c-5.845-0.723-11.701-1.354-17.542-2.1c-1.622-0.202-3.211-0.667-5.42-1.147c0.507,1.257,0.829,2.049,1.411,3.488
	c-1.358-0.824-2.619-1.151-3.079-1.943c-1.752-3.02-3.527-6.079-4.771-9.324c-2.384-6.224-6.98-9.389-13.203-10.892
	c-1.327-0.324-2.41-1.632-3.601-2.483c0.166-0.485,0.34-0.973,0.506-1.458c-2.362,0.644-4.73,1.286-7.093,1.93
	c-0.056,0.481-0.106,0.967-0.162,1.453c4.386,1.542,8.77,3.084,13.156,4.627c-0.089,0.288-0.179,0.578-0.267,0.869
	c-3.892-1.026-7.783-2.034-11.667-3.075c-6.974-1.862-10.297-0.013-12.603,6.827c-1.354,4.029-2.938,7.972-5.239,11.758
	c0.631-2.707,1.263-5.412,1.895-8.119c-0.457-0.16-0.915-0.318-1.369-0.476c-0.673,1.874-1.19,3.823-2.062,5.599
	c-0.845,1.727-1.757,4.333-3.151,4.72c-7.003,1.959-14.098,4.872-21.468,3.033c-2.772-0.688-5.624-3.111-7.343-5.525
	c-3.205-4.498-6.398-8.997-5.952-15.354c0.451-6.433-5.222-8.977-11.025-6.393c-4.867,2.162-8.182,5.269-11.4,9.489
	c-3.802,4.983-9.147,8.79-14.351,13.601c-1.388-2.972-2.809-4.938-3.237-7.105c-2.629-13.269-5.773-26.501-7.256-39.911
	c-1.03-9.316-0.06-18.93,0.705-28.358c1.215-14.932,1.937-30.026,4.801-44.673c4.439-22.698,14.37-43.419,29.11-61.231
	c7.352-8.882,16.545-16.321,29.37-17.178c3.611-0.242,7.043-3.067,10.572-4.673c0.728-0.331,1.529-0.729,2.292-0.716
	c18.607,0.295,37.248,1.616,53.679,11.117c12.456,7.206,22.631,17.354,28.068,31.279c4.475,11.448,9.143,22.831,13.22,34.419
	c2.597,7.387,3.539,15.547,5.994,22.664c2.103,6.097-0.147,12.514,3.434,18.098c1.113,1.731,0.234,4.91-0.092,7.377
	c-1.698,12.859-3.229,25.755-5.391,38.539c-1.337,7.922-2.723,16.103-5.923,23.359c-2.438,5.535-4.486,10.589-3.958,16.648
	C209.076,219.007,207.901,220.23,207.822,220.39z M57.837,143.894c-3.689-2.966-6.536-4.45-6.765,0.522
	c-0.547,11.932-0.939,23.876-1.066,35.818c-0.053,4.962,0.737,9.938,1.137,14.906c0.319,3.971,0.353,7.991,1.092,11.88
	c0.252,1.317,2.269,2.296,3.478,3.432c0.577-0.907,1.157-1.814,1.877-2.947c2.157,0.474,5.783-1.941,7.69-5.743
	c5.64-11.233,19.032-14.03,28.533-6.559c-0.205,1.855-0.726,3.351-0.454,4.683c1.057,5.188,1.363,10.907,3.92,15.275
	c1.77,3.022,6.771,4.152,10.328,6.13c0.276-0.417,0.553-0.833,0.828-1.251c-0.319-0.961-0.639-1.928-1.209-3.643
	c4.03,0.686,7.416,1.677,10.802,1.683c2.097,0.006,5.247-0.907,6.099-2.427c2.647-4.738,4.25-10.05,6.577-14.988
	c7.45-15.851,29.158-12.433,35.91-3.113c3.919,5.408,9.908,9.315,15.746,14.608c-0.687-1.817-1.029-2.73-1.279-3.394
	c7.601,1.095,15.315,2.208,22.788,3.284c0.559-1.975,1.136-3.96,1.677-5.956c1.592-5.871,3.135-11.755,4.762-17.612
	c1.023-3.689,1.696-7.575,3.344-10.979c4.106-8.471,5.501-17.468,5.42-26.64c-0.098-11.237,0.356-22.37-2.365-33.673
	c-3.569-14.843-2.771-30.807-12.439-43.938c-0.569-0.771-0.512-1.991-1.055-2.799c-3.817-5.719-2.823-13.258-9.625-18.413
	c-5.948-4.515-12.926-7.49-18.335-12.754c-3.175-3.092-8.309-4.881-10.131-8.487c-2.439-4.811-5.734-7.214-10.387-7.991
	c-9.499-1.592-19.065-3.837-28.671-0.398c-0.457,0.164-1.25,0.43-1.419,0.237c-4.138-4.75-7.644-0.092-11.361,0.759
	c-4.914,1.123-7.972,6.669-13.62,5.95c-2.853-0.362-5.359-0.739-6.146,2.965c-0.071,0.333-0.724,0.61-1.161,0.785
	c-9.749,3.933-9.198,13.604-12.187,21.752c5.833-6.518,11.836-11.036,19.676-5.009c-2.167,0.859-5.234,1.544-7.647,3.188
	c-2.392,1.627-4.107,4.243-6.178,6.364c-0.222,0.228-1.064-0.133-1.268,0.092c-0.829,0.927-1.963,1.891-2.169,2.994
	c-0.378,2.029,0.212,4.266-0.292,6.24c-2.266,8.847-5.653,17.499-6.991,26.467c-1.965,13.197-2.528,26.601-3.553,38.345
	c-3.449-22.634,1.232-46.011,8.327-69.169c-12.625,13.771-12.71,31.977-17.333,49.467c-0.81-3.618-1.367-6.095-1.921-8.574
	c-0.673,0.056-1.346,0.112-2.017,0.169c-0.961,7.098-1.923,14.195-2.891,21.33c-0.373-0.03-1.391-0.108-2.794-0.22
	C54.633,132.102,56.015,137.183,57.837,143.894z M56.515,102.03c7.172-4.765,8.811-11.717,9.596-19.194
	c0.294-2.801,1.644-5.49,2.511-8.23c0.521-1.647,1.043-3.295,1.621-5.117c-4.427-0.103-6.545,1.097-6.2,5.451
	c0.144,1.824-1.272,3.735-1.797,5.658C60.295,87.73,58.419,94.884,56.515,102.03z M67.58,64.459c0.557,0.355,1.115,0.71,1.674,1.067
	c0.32-3.828,6.72-4.032,4.397-10.779C71.229,58.622,69.405,61.54,67.58,64.459z M50.589,97.345c0.602,0.144,1.206,0.288,1.807,0.432
	c1.177-4.895,2.353-9.791,3.527-14.686c-0.541-0.13-1.083-0.261-1.625-0.392C53.063,87.58,51.825,92.463,50.589,97.345z"/>
<path fill-rule="evenodd" clip-rule="evenodd" d="M188.521,84.418c-3.754-5.618-7.506-11.235-12.076-18.078
	c-1.081,4.871-3.129,8.504,0.449,11.822c7.598,7.041,9.788,16.788,12.825,26.275c-0.97-1.441-1.939-2.88-3.514-5.214
	c-0.098,2.33-0.156,3.781-0.202,4.955c-2.736-5.15-5.583-10.507-8.595-16.188c0.418-0.29,1.116-0.772,2.34-1.618
	c-4.312-4.032-8.77-7.719-12.634-11.95c-3.769-4.131-10.217-6.242-11.349-12.487c0.444-0.458,0.886-0.914,1.326-1.372
	c4.309,2.932,8.617,5.859,13.798,9.385c0.235-3.827,0.407-6.908,0.626-9.984c0.104-1.485,0.166-2.993,0.473-4.442
	c0.69-3.209,1.526-6.387,2.44-10.164c0.272,0.216,1.743,0.938,2.512,2.115c0.782,1.193,1.198,2.833,1.211,4.287
	c0.082,7.974,4.571,14.386,7.318,21.419c1.411,3.611,2.544,7.333,3.802,11.003C189.018,84.262,188.768,84.341,188.521,84.418z"/>
</svg>
