<?xml version="1.0" encoding="utf-8"?>
<!-- Generator: Adobe Illustrator 16.0.0, SVG Export Plug-In . SVG Version: 6.00 Build 0)  -->
<!DOCTYPE svg PUBLIC "-//W3C//DTD SVG 1.1//EN" "http://www.w3.org/Graphics/SVG/1.1/DTD/svg11.dtd">
<svg version="1.1" id="Layer_1" xmlns="http://www.w3.org/2000/svg" xmlns:xlink="http://www.w3.org/1999/xlink" x="0px" y="0px"
	 width="250px" height="250px" viewBox="0 0 250 250" enable-background="new 0 0 250 250" xml:space="preserve">
<path fill="none" stroke="#000000" stroke-miterlimit="10" d="M243.5,233.114c0,6.288-5.098,11.386-11.387,11.386H16.886
	c-6.288,0-11.386-5.098-11.386-11.386V17.886C5.5,11.598,10.598,6.5,16.886,6.5h215.229c6.287,0,11.386,5.098,11.386,11.386
	L243.5,233.114L243.5,233.114z"/>
<path fill-rule="evenodd" clip-rule="evenodd" d="M157.783,152.8c1.708,1.337,3.411,2.673,5.119,4.01
	c-0.105,0.329-0.211,0.659-0.314,0.989c-1.14-0.254-2.698-0.123-3.343-0.832c-3.047-3.322-5.848-1.723-8.676,0.118
	c-5.629,3.667-11.713,6.827-14.863,13.296c-0.286,0.585-1.187,1.42-1.59,1.316c-4.253-1.083-6.208,2.927-9.315,3.994
	c-5.341,1.837-11.073,2.558-16.661,3.647c-6.735,1.31-12.757-1.383-18.886-3.494c-7.917-2.723-15.698-6.173-23.838-7.842
	c-11.031-2.265-22.288-2.934-33.273,1.349c-6.832,2.663-9.983,1.787-13.861-3.291c-0.816-1.067-1.455-3.039-1.029-4.161
	c2.071-5.439,4.605-10.699,6.834-16.082c1.959-4.728,3.639-9.574,5.605-14.3c4.543-10.92,9.073-21.85,13.823-32.681
	c3.465-7.9,6.791-15.934,11.145-23.341c1.968-3.346,6.05-5.7,9.582-7.823c8.755-5.267,17.85-10.012,28.1-11.561
	c3.283-0.496,7.173-0.533,10.09,0.773c8.15,3.649,15.494,8.742,21.215,15.762c6.315,7.747,12.055,16,18.777,23.365
	c6.406,7.017,14.917,10.97,24.226,13.079c2.454,0.556,4.807,1.564,7.261,2.119c6.38,1.439,12.818,2.619,19.176,4.132
	c8.857,2.109,16.39,6.808,22.987,12.897c4.531,4.182,8.578,8.885,12.939,13.256c0.986,0.987,2.382,1.565,3.832,2.488
	c0.317,5.319-4.62,5.034-7.856,6.498c-2.686,1.216-5.946,1.507-8.237,3.183c-5.774,4.218-12.235,2.183-18.374,2.66
	c-3.863,0.301-7.804-0.566-11.718-0.682c-1.904-0.057-3.819,0.426-5.729,0.625c-1.127,0.121-2.729,0.689-3.317,0.162
	C171.783,151.217,164.84,152.18,157.783,152.8z M102.384,63.24c-5.918-0.549-11.143-1.952-16.055-1.226
	c-4.858,0.716-9.551,3.288-14.039,5.587c-4.2,2.154-8.707,4.386-11.85,7.737c-3.4,3.625-5.555,8.493-7.925,12.992
	c-2.252,4.275-4.081,8.774-6.095,13.176c0.363,0.172,0.725,0.346,1.088,0.518c6.635-5.938,13.023-12.792,22.67-12.692
	c5.168,0.054,10.976,0.903,15.329,3.412c7.755,4.471,14.306,10.731,19.371,18.415c3.449,5.234,7.513,10.065,11.334,15.052
	c4.601,6,9.861,12.174,9.746,19.887c-0.097,6.488,4.751,9.587,6.84,14.44c0.259,0.598,2.752,1.026,3.446,0.51
	c3.024-2.253,5.658-5.021,8.637-7.343c3.622-2.822,7.418-5.432,11.208-8.025c1.191-0.817,2.564-1.576,3.953-1.855
	c5.072-1.024,10.154-2.145,15.289-2.658c8.99-0.901,18.021-1.428,27.041-1.984c1.408-0.088,2.857,0.473,4.288,0.733
	c0.047,0.394,0.096,0.782,0.145,1.175c-7.101,3.207-14.961,3.758-22.529,4.943c-3.727,0.582-6.971,1.162-7.492,3.811
	c16.973,4.43,33.478,3.756,49.924-4.695c-1.211-1.84-1.977-3.692-3.318-4.903c-4.988-4.505-8.919-9.854-15.176-13.409
	c-6.042-3.431-11.823-6.746-18.592-8.39c-5.145-1.25-10.194-2.895-15.307-4.288c-3.901-1.063-8.149-3.41-11.669-2.624
	c-3.731,0.832-5.545-0.474-7.9-2.22c-1.558-1.155-3.168-2.248-4.8-3.298c-2.914-1.871-6.409-3.18-8.678-5.634
	c-4.662-5.038-8.619-10.721-12.969-16.052c-3.895-4.773-7.408-10.045-12.04-13.981c-5.198-4.417-11.435-7.625-17.299-11.232
	c-0.703-0.431-1.9-0.058-2.867-0.058c-0.004,0.309-0.008,0.619-0.011,0.928C97.932,60.941,99.782,61.896,102.384,63.24z
	 M100.497,177.061c0.507-5.563-3.792-4.849-6.609-5.582c-0.955-0.249-2.316,1.061-4.584,2.215
	C93.921,175.081,97.031,176.017,100.497,177.061z"/>
<path fill-rule="evenodd" clip-rule="evenodd" d="M157.414,115.977c-1.486,2.296-2.318,3.581-3.153,4.869
	c0.089,0.093,0.178,0.189,0.267,0.285c-4.15,4.539-8.297,9.077-12.447,13.615c0.38,0.429,0.764,0.859,1.145,1.29
	c1.664-0.812,3.33-1.619,4.992-2.429c0.159,0.342,0.322,0.687,0.479,1.025c-3.672,1.625-7.347,3.25-11.021,4.874
	c-0.29-0.257-0.583-0.507-0.876-0.761c1.481-3.121,2.966-6.244,4.45-9.365c0.688-0.546,1.378-1.098,2.069-1.645
	c-3.271-1.762-6.539-3.521-9.808-5.281c0.534-0.645,1.068-1.287,1.6-1.93c1.706,0.596,3.411,1.191,6.259,2.186
	c-0.342-2.619-0.603-4.595-1.007-7.674C145.684,115.331,151.214,115.635,157.414,115.977z"/>
</svg>
