<?xml version="1.0" encoding="utf-8"?>
<!-- Generator: Adobe Illustrator 16.0.0, SVG Export Plug-In . SVG Version: 6.00 Build 0)  -->
<!DOCTYPE svg PUBLIC "-//W3C//DTD SVG 1.1//EN" "http://www.w3.org/Graphics/SVG/1.1/DTD/svg11.dtd">
<svg version="1.1" id="Layer_1" xmlns="http://www.w3.org/2000/svg" xmlns:xlink="http://www.w3.org/1999/xlink" x="0px" y="0px"
	 width="250px" height="250px" viewBox="0 0 250 250" enable-background="new 0 0 250 250" xml:space="preserve">
<path fill="none" stroke="#000000" stroke-miterlimit="10" d="M243.5,233.114c0,6.288-5.098,11.386-11.387,11.386H16.886
	c-6.288,0-11.386-5.098-11.386-11.386V17.886C5.5,11.598,10.598,6.5,16.886,6.5h215.229c6.287,0,11.386,5.098,11.386,11.386
	L243.5,233.114L243.5,233.114z"/>
<path fill-rule="evenodd" clip-rule="evenodd" d="M217.937,131.325c-1.494,3.915-0.005,7.407,2.417,10.331
	c3.147,3.8,5.091,7.521,2.484,12.378c-0.311,0.582-0.229,1.559,0.012,2.226c1.247,3.432,0.705,6.158-2.719,7.99
	c-0.378,0.202-0.771,0.835-0.75,1.245c0.221,4.414,0.184,8.882,0.916,13.218c0.56,3.314,2.04,6.249-0.198,9.688
	c-1.279,1.963-1.056,4.844-1.878,7.182c-0.852,2.43-1.645,5.185-3.343,6.951c-4.542,4.726-9.467,9.102-14.41,13.417
	c-4.025,3.509-8.326,6.7-12.451,10.098c-2.145,1.767-3.738,0.534-4.685-1.131c-1.358-2.383-3.053-2.351-5.094-1.445
	c-4.935,2.191-9.918,4.293-14.723,6.745c-1.948,0.992-3.183,1.002-4.586-0.652c-2.848-3.36-6.151-4.184-10.443-2.46
	c-4.156,1.669-8.603,2.613-13.757,4.121c0-1.701,0.172-2.726-0.034-3.667c-0.411-1.874-0.634-4.021-1.747-5.399
	c-0.499-0.618-3.124-0.015-4.486,0.648c-4.191,2.039-8.337,4.214-12.314,6.645c-3.174,1.938-5.359,1.15-7.441-1.564
	c-1.193-1.554-2.654-2.905-4.431-4.816c-1.701,4.498-4.714,4.059-8.148,3.872c-2.588-0.141-5.256,1.355-7.909,2.059
	c-1.269,0.339-2.91,1.156-3.818,0.682c-4.521-2.37-9.004-4.887-13.202-7.784c-2.534-1.746-4.451-1.899-6.948,0.508
	c-1.528,1.474-3.259,2.739-4.897,4.099c-0.304-2.156-0.601-4.313-0.917-6.468c-0.035-0.24-0.179-0.461-0.4-0.999
	c-1.9,0.566-3.83,1.14-5.343,1.591c-1.673-2.898-2.997-5.419-4.539-7.798c-2.047-3.166-4.827-5.193-8.847-4.706
	c-3.886,0.469-5.114-1.733-4.629-5.003c0.51-3.425-0.433-6.03-2.72-8.594c-3.007-3.371-3.05-7.762-2.608-11.903
	c0.685-6.433-0.784-12.201-3.731-17.851c-0.571-1.099,0.034-3.175,0.706-4.487c1.744-3.389,4.132-6.456,2.91-10.711
	c-0.377-1.311-0.454-3.188,0.219-4.233c1.963-3.033,1.773-6.046,0.578-9.091c-1.684-4.284-1.24-8.201,0.7-12.374
	c1.795-3.861,4.36-8.038,0.491-12.306c-0.235-0.258-0.169-1.008,0.021-1.401c2.437-5.054,1-10.163,0.142-15.214
	c-0.487-2.875-0.142-5.018,2.908-6.07c0.567-0.196,1.054-0.625,1.579-0.946c-2.931-4.01,3.69-8.908-1.263-12.823
	c-2.594-2.049-1.696-4.493-0.002-6.673c4.737-6.1,4.865-9.252,0.496-15.362c-2.668-3.731-2.516-4.406,1.946-5.289
	c7.611-1.503,10.607-7.36,12.671-13.693c0.964-2.956,2.062-3.154,4.555-2.42c5.69,1.674,11.737-0.606,15.131-5.511
	c2.425-3.503,4.972-3.965,8.317-1.535c1.795,1.304,3.571,1.73,5.478,0.083c1.41-1.217,2.974-2.257,4.811-3.632
	c0.66,1.159,1.337,2.051,1.694,3.058c0.359,1.004,0.398,2.122,0.578,3.179c8.102-1.05,12.073-9.891,21.323-10.242
	c-1.938,3.219-3.506,5.823-5.075,8.427c0.384,0.35,0.766,0.702,1.147,1.054c2.274-1.959,4.569-3.893,6.816-5.883
	c3.071-2.718,4.456-2.437,5.126,1.574c0.421,2.515,1.645,2.313,3.127,1.563c3.572-1.805,7.052-3.788,11.084-5.979
	c0.917,2.43,1.906,5.06,3.089,8.198c1.767-1.231,3.507-2.339,5.131-3.6c2.068-1.606,3.687-1.657,5.405,0.638
	c0.547,0.729,2.262,1.128,3.246,0.883c3.746-0.933,7.257,0.063,9.348,3.592c1.302,2.196,2.687,2.06,4.354,1.011
	c3.213-2.019,6.261-4.31,9.54-6.202c1.125-0.648,2.74-0.439,4.134-0.621c0.135,1.249,0.618,2.585,0.337,3.731
	c-0.858,3.479,1.025,5.963,4.443,5.151c2.124-0.505,4.068-1.746,6.112-2.619c1.589-0.679,3.194-1.809,4.806-1.836
	c3.117-0.054,4.044,2.235,2.863,4.982c-0.714,1.662-0.517,3.717-0.754,5.815c4.044,0,7.407-0.126,10.75,0.071
	c1.085,0.063,2.283,0.78,3.14,1.53c1.614,1.408,2.992,3.077,4.511,4.597c1.193,1.197,2.451,2.333,3.814,3.625
	c5.357-1.139,5.869-0.319,5.174,5.792c-0.586,5.136-1.911,10.98-0.134,15.394c2.344,5.824,1.87,10.536-0.206,15.853
	c-0.414,1.056,0.439,2.633,0.783,3.951c0.638,2.437,1.689,4.836,1.866,7.3c0.102,1.386-0.817,3.593-1.934,4.181
	c-3.517,1.854-3.73,4.687-3.383,7.978c0.356,3.372,0.559,6.761,1.005,10.12c0.432,3.237,1.2,6.428,1.598,9.669
	c0.202,1.628-0.087,3.313-0.152,4.976C221.319,131.8,219.921,131.604,217.937,131.325z M211.362,47.516
	c-1.391-1.566-2.693-3.223-4.205-4.663c-0.839-0.8-1.975-1.657-3.056-1.781c-10.728-1.211-10.31,1.132-12.66-9.46
	c-2.412,0.683-4.774,1.581-7.217,1.977c-2.432,0.395-5.235,1.013-7.334,0.177c-1.738-0.692-2.687-3.361-3.789-4.882
	c-3.57,1.543-7.217,3.804-11.168,4.651c-4.882,1.047-5.996-4.724-9.511-6.612c-3.212,2.345-6.375,2.405-9.227-0.751
	c-3.123,2.841-5.967,5.958-10.064,1.741c-0.439-0.454-1.897-0.078-2.835,0.135c-4.055,0.923-8.21,1.816-11.92-0.677
	c-2.734-1.837-4.394-1.456-6.752,0.799c-4.594,4.39-6.516,4.049-9.7-0.705c-8.278,5.125-12.748,5.905-15.943,1.211
	c-4.299,3.509-7.917,1.348-11.322-1.639c-0.468,0.264-0.815,0.413-1.105,0.632c-0.605,0.459-1.317,0.859-1.749,1.454
	c-4.346,5.985-9.846,9.391-17.563,8.227c-0.499-0.075-1.234,0.764-1.715,1.305c-4.049,4.548-8.063,9.128-12.087,13.697
	c-0.631,0.106-0.438,0.912,0.07,1.384c4.181,3.906,3.149,7.987,0.577,12.204c-0.588,0.963-0.951,2.066-1.397,3.112
	c-1.059,2.477-1.529,4.707,1.17,6.71c0.875,0.651,1.337,2.472,1.234,3.695c-0.186,2.188-1.523,4.378-1.333,6.474
	c0.329,3.619-1.104,5.708-4.069,7.32c-0.714,0.388-1.503,1.464-1.497,2.217c0.042,4.879,0.272,9.757,0.5,14.632
	c0.027,0.599,0.312,1.225,0.611,1.765c2.301,4.155,1.314,8.04-0.539,12.091c-1.164,2.549-3.093,6.373-2.078,8.013
	c4.437,7.174-1.826,14.081,0.281,20.983c0.14,0.464-0.475,1.12-0.609,1.716c-0.943,4.176-2.56,8.049-0.853,12.717
	c1.496,4.099,1.389,8.806,1.818,13.259c0.287,2.984-0.237,6.14,0.557,8.948c0.677,2.396,3.128,4.245,4.058,6.625
	c1.412,3.625,2.691,7.024,7.115,7.796c0.388,0.066,0.871,0.619,0.995,1.037c2.708,9.19,11.495,8.44,18.175,10.98
	c3.071,1.169,6.509,1.335,9.7,2.239c1.24,0.351,2.163,1.88,3.399,2.188c6.412,1.592,12.805,2.604,19.316-0.044
	c2.208-0.898,5.092-1.435,7.293-0.816c7.165,2.014,13.99,2.457,21.17-0.286c3.361-1.283,7.929-1.843,10.713,1.319
	c3.508,3.982,6.942,3.163,11.2,1.901c6.209-1.836,12.593-3.133,18.953-4.409c9.853-1.979,19.559-4.308,27.34-11.191
	c4.531-4.013,9.021-8.111,13.131-12.539c4.492-4.842,7.827-10.303,5.479-17.46c-0.233-0.71,0.001-1.932,0.501-2.465
	c2.827-3.009,0.742-5.869-0.558-8.292c-2.061-3.854-2.077-4.664,2.068-6.055c2.86-0.958,5.036-2.28,4.636-5.859
	c-0.107-0.945,0.296-2.01,0.672-2.935c1.12-2.749,0.405-4.881-1.839-6.729c-1.164-0.958-2.187-2.107-3.155-3.271
	c-5.248-6.321-3.717-13.644,3.476-17.085c-0.829-5.754-1.73-11.473-2.459-17.215c-0.689-5.433,0.292-10.13,6.797-12.19
	c-6.36-13.855-4.986-28.343-4.836-42.697C213.272,53.301,213.159,53.211,211.362,47.516z"/>
<path fill-rule="evenodd" clip-rule="evenodd" d="M143.482,67.117c-0.967,0.699-1.946,1.288-2.784,2.039
	c-2.968,2.66-6.177,2.292-9.037,0.225c-1.793-1.297-3.188-1.646-5.085-0.641c-7.898,4.18-14.701,1.243-21.331-3.224
	c-0.836-0.563-2.507-0.888-3.242-0.434c-3.597,2.212-6.472,0.393-9.599-1.075c-1.669-0.784-3.758-1.499-5.465-1.188
	c-3.05,0.556-5.338-0.042-7.621-2.083c-2.652-2.37-5.597-4.189-9.545-3.575c-0.833,0.13-2.681-1.172-2.701-1.859
	c-0.063-1.895-0.056-4.767,1.087-5.546c3.665-2.496,7.725-4.558,11.871-6.177c9.162-3.574,18.904-3.964,28.587-4.761
	c19.02-1.566,37.901-0.303,56.583,3.087c7.57,1.374,14.721,4.798,21.162,9.239c2.833,1.955,3.015,4.998,0.943,8.804
	c-2.233,4.103-6.072,6.434-9.087,4.997c-2.002-0.956-2.968-0.61-4.521,0.801c-4.669,4.245-8.04,4.344-14.214,1.488
	c-1.094-0.506-2.917-0.013-4.183,0.531C151.24,69.505,147.342,70.01,143.482,67.117z M182.53,54.33
	c-2.742-2.465-4.166-4.463-6.101-5.362c-11.079-5.163-23.207-5.576-35.044-7.137c-15.04-1.986-30.119-0.881-45.007,1.315
	c-6.798,1.003-13.323,4.096-19.857,6.549c-2.124,0.797-2.644,3.354-0.71,4.575c3.139,1.98,6.658,3.549,10.22,4.598
	c2.85,0.84,6.005,0.625,9.022,0.917c3.5,0.337,7.063,0.417,10.478,1.156c4.132,0.893,8.108,3.278,12.201,3.401
	c11.047,0.335,22.148,0.235,33.175-0.503c8.381-0.561,17.057-0.519,24.814-4.588C178.012,58.052,179.966,56.213,182.53,54.33z"/>
<path fill-rule="evenodd" clip-rule="evenodd" d="M99.991,88.968c-1.125-1.565-2.367-3.061-3.345-4.713
	c-1.401-2.373-3.025-3.958-6.076-3.105c-0.947,0.265-2.241,0.516-2.984,0.089c-4.633-2.653-8.835-0.873-13.536,0.177
	c-6.253,1.396-11.487-2.046-15.315-7.072c-1.601-2.104-2.94-3.748-6.075-3.286c-2.836,0.415-4.798-1.579-6.192-5.386
	c0.902,0,1.703-0.141,2.423,0.039c0.714,0.179,1.368,1.026,2.012,0.988c6.084-0.371,9.646,4.38,14.3,6.895
	c0.33,0.178,0.849,0.197,1.018,0.46c3.071,4.718,6.456,2.232,10.096,0.788c1.552-0.616,3.671,0.193,5.531,0.374
	c2.383,0.231,4.765,0.478,7.147,0.725c1.663,0.173,3.96-0.267,4.871,0.654c2.866,2.9,5.266,6.271,7.693,9.575
	c0.33,0.449-0.219,1.545-0.362,2.343C100.793,88.665,100.393,88.817,99.991,88.968z"/>
<path fill-rule="evenodd" clip-rule="evenodd" d="M182.646,79.764c-1.818,0.737-3.635,1.478-5.453,2.212
	c-3.146,1.272-6.271,2.613-9.468,3.746c-0.595,0.212-1.485-0.412-2.241-0.65c0.35-0.733,0.501-1.798,1.084-2.147
	c3.974-2.389,7.811-5.665,12.143-6.62c4.229-0.933,8.35-1.976,12.387-3.48c1.027-0.383,2.636-0.565,2.949-1.288
	c2.026-4.65,6.521-4.041,10.178-4.841c5.094-1.112,8.252-3.901,9.871-8.788c0.26-0.785,1.576-1.219,2.404-1.814
	c0.267,0.938,0.97,2.018,0.721,2.789c-0.893,2.747-1.835,5.548-3.271,8.032c-1.805,3.126-5.096,3.735-8.481,4.188
	c-1.79,0.238-3.499,1.318-5.164,2.176c-1.837,0.945-3.463,2.462-5.388,3.024c-2.849,0.832-5.895,0.743-8.1,3.401
	c-0.675,0.813-2.567,0.613-3.901,0.876C182.825,80.309,182.737,80.037,182.646,79.764z"/>
<path fill-rule="evenodd" clip-rule="evenodd" d="M108.611,91.24c0.103,0.064-0.625-0.383-1.355-0.831
	c0.674-0.73,1.294-2.024,2.035-2.099c4.941-0.499,8.715-3.158,12.341-6.177c3.201-2.665,6.456-1.978,9.33,0.306
	c2.099,1.667,3.469,2.715,6.031,0.42c1.316-1.179,4.08-1.43,6.016-1.094c4.588,0.793,9.095,2.111,13.567,3.441
	c0.531,0.158,0.649,1.71,0.959,2.616c-2.257,0.085-5.122,1.092-6.658,0.08c-4.327-2.854-6.35-3.16-10.087,0.265
	c-2.524,2.316-8.52,1.503-11.302-1.533c-3.198-3.487-4.179-3.677-7.586-0.473C118.416,89.438,114.52,91.406,108.611,91.24z"/>
</svg>
