<?xml version="1.0" encoding="utf-8"?>
<!-- Generator: Adobe Illustrator 16.0.0, SVG Export Plug-In . SVG Version: 6.00 Build 0)  -->
<!DOCTYPE svg PUBLIC "-//W3C//DTD SVG 1.1//EN" "http://www.w3.org/Graphics/SVG/1.1/DTD/svg11.dtd">
<svg version="1.1" id="Layer_1" xmlns="http://www.w3.org/2000/svg" xmlns:xlink="http://www.w3.org/1999/xlink" x="0px" y="0px"
	 width="250px" height="250px" viewBox="0 0 250 250" enable-background="new 0 0 250 250" xml:space="preserve">
<path fill="none" stroke="#000000" stroke-miterlimit="10" d="M243.5,233.114c0,6.288-5.098,11.386-11.386,11.386H16.886
	c-6.288,0-11.386-5.098-11.386-11.386V17.886C5.5,11.598,10.598,6.5,16.886,6.5h215.229c6.288,0,11.386,5.098,11.386,11.386V233.114
	z"/>
<path fill-rule="evenodd" clip-rule="evenodd" d="M163.391,202.154c-5.56,0.708-11.101,1.619-16.679,2.081
	c-19.397,1.605-38.528,0.104-57.414-4.844c-5.393-1.411-11.041-2.047-16.617-2.517c-6.04-0.512-11.088-3.077-16.185-6.036
	c-7.106-4.125-14.85-7.255-21.587-11.879c-6.34-4.353-11.942-9.877-17.412-15.34c-1.775-1.775-2.614-4.759-0.568-7.716
	c2.308-3.335,4.294-6.766,4.506-11.243c0.648-13.687,1.699-27.361,2.8-41.025c0.778-9.667,1.918-19.304,2.834-28.96
	c0.167-1.758,0.304-3.598-0.017-5.312c-2.065-11.077,4.02-18.208,11.043-25.634c10.304-10.895,24.026-12.514,37.274-15.468
	c13.677-3.05,27.597-4.994,41.659-4.182c8.663,0.501,17.248,2.4,25.908,2.841c14.504,0.738,27.925,5.568,41.718,9.341
	c15.329,4.192,29.298,10.855,42.097,19.885c3.192,2.251,5.374,7.072,6.347,11.114c2.65,10.988-0.125,21.863-1.953,32.746
	c-2.622,15.61-4.796,31.293-7.276,46.93c-1.564,9.884-2.63,19.936-5.347,29.512c-1.228,4.337-5.163,9.067-9.163,11.248
	C195.078,195.486,180.088,201.773,163.391,202.154z M31.122,77.205c-0.357,0.229-0.711,0.461-1.067,0.691
	c-0.653,4.954-1.503,9.891-1.92,14.866c-1.807,21.442-3.405,42.904-5.277,64.343c-0.367,4.183,0.246,7.323,4.045,9.798
	c2.788,1.816,5.017,4.477,7.53,6.725c8.27,7.396,17.75,12.871,28.556,15.144c14.361,3.024,28.958,4.911,43.372,7.692
	c18.031,3.479,36.134,1.792,54.232,1.47c14.647-0.261,28.055-5.215,41.252-10.896c5.163-2.227,10.418-4.688,12.506-10.462
	c1.281-3.555,2.007-7.35,2.636-11.092c3.325-19.742,6.563-39.5,9.775-59.262c0.533-3.26,0.8-6.563,1.282-10.634
	c-2.966,1.747-5.299,2.975-7.479,4.428c-9.019,6.007-18.626,10.883-29.363,12.558c-12.23,1.907-24.565,3.439-36.912,4.255
	c-10.71,0.707-21.564,0.918-32.235-0.028c-8.414-0.745-16.64-3.603-24.956-5.487c-12.524-2.839-25.288-5.222-36.512-11.742
	c-8.334-4.843-16.105-10.689-23.948-16.334C34.474,81.679,32.943,79.239,31.122,77.205z M224.863,79.475
	c1.379-2.388,2.754-3.688,2.806-5.041c0.245-6.377-0.475-12.439-7.21-15.754c-4.574-2.25-9.088-4.63-13.537-7.112
	c-3.212-1.789-6.13-4.155-9.443-5.699c-5.195-2.421-10.525-4.631-15.956-6.45c-8.781-2.941-17.527-6.509-26.585-7.974
	c-13.788-2.23-27.814-3.616-41.772-3.971c-10.07-0.255-20.277,1.268-30.277,2.9c-8.561,1.397-16.821,4.629-25.382,6.019
	c-7.086,1.153-12.238,4.898-17.103,9.481c-5.299,4.987-5.795,15.21-1.13,19.4c0.997-0.798,1.997-1.596,3.585-2.865
	c0.127,2.411,0.207,3.923,0.315,6.005c3.311-2.793,4.142-8.097,10.484-7.762c-2.115,2.758-3.672,4.788-5.229,6.817
	c2.036,0.09,3.481-0.672,5.002-0.876c1.092-0.146,2.285,0.45,3.434,0.715c-0.754,0.91-1.339,2.099-2.293,2.672
	c-2.164,1.3-4.509,2.297-7.523,3.784c2.14,1.544,3.354,2.603,4.725,3.38c14.73,8.36,30.438,14.096,47.004,17.575
	c8.002,1.679,15.889,4.285,23.968,5.104c6.629,0.672,13.458-0.726,20.204-1.109c3.229-0.183,6.487-0.343,9.707-0.138
	c2.819,0.178,5.672,1.53,8.389,1.238c10.394-1.113,20.786-2.392,31.083-4.173c7.421-1.284,14.686-3.458,23.254-5.536
	c-3.084-3.392-5.11-5.418-6.857-7.66c-0.564-0.724-0.386-2.025-0.548-3.063c1.053,0.129,2.408-0.113,3.106,0.454
	c2.383,1.935,4.537,4.154,7.215,6.68c1.414-4.063,2.761-7.938,4.108-11.813c0.327,0.102,0.652,0.206,0.98,0.31
	C223.74,76.081,224.092,77.15,224.863,79.475z M230.361,82.023c-1.399,1.273-3.158,2.185-3.823,3.608
	c-2.053,4.401-5.894,6.732-9.939,8.289c-9.467,3.646-19.16,6.694-28.744,10.05c-8.876,3.108-17.934,2.356-27.109,1.969
	c-14.238-0.601-28.404,1.306-42.753-1.795c-18.585-4.018-37.539-6.433-54.404-15.956c-10.287-5.805-21.281-10.847-28.467-20.843
	c-1.583-2.204-2.077-5.191-3.366-8.589c-0.675,1.969-1.617,3.405-1.563,4.802c0.217,5.816,2.325,10.766,6.941,14.65
	c12.791,10.764,27.45,17.531,43.358,22.559c10.477,3.312,21.411,3.943,31.823,7.722c12.322,4.474,25.552,3.854,38.563,2.646
	c3.646-0.339,7.391-1.226,10.938-0.744c12.487,1.697,24.578-0.539,36.213-4.252c7.875-2.512,15.07-7.206,22.487-11.084
	C225.634,92.377,230.572,89.391,230.361,82.023z"/>
</svg>
