<?xml version="1.0" encoding="utf-8"?>
<!-- Generator: Adobe Illustrator 16.0.0, SVG Export Plug-In . SVG Version: 6.00 Build 0)  -->
<!DOCTYPE svg PUBLIC "-//W3C//DTD SVG 1.1//EN" "http://www.w3.org/Graphics/SVG/1.1/DTD/svg11.dtd">
<svg version="1.1" id="Layer_1" xmlns="http://www.w3.org/2000/svg" xmlns:xlink="http://www.w3.org/1999/xlink" x="0px" y="0px"
	 width="250px" height="250px" viewBox="0 0 250 250" enable-background="new 0 0 250 250" xml:space="preserve">
<path fill="none" stroke="#000000" stroke-miterlimit="10" d="M243.5,233.114c0,6.288-5.098,11.386-11.387,11.386H16.886
	c-6.288,0-11.386-5.098-11.386-11.386V17.886C5.5,11.598,10.598,6.5,16.886,6.5h215.229c6.287,0,11.386,5.098,11.386,11.386
	L243.5,233.114L243.5,233.114z"/>
<path d="M205.429,203.846c-0.244,0.059-0.491,0.116-0.73,0.176c1.095-2.44,2.578-4.33,2.719-6.316
	c0.462-6.586,0.93-13.232,0.509-19.803c-1.299-20.198-2.964-40.373-4.57-60.554c-0.644-8.025-1.623-16.025-2.246-24.05
	c-1.287-16.565-1.212-33.393-10.313-48.297c-0.72-1.176-1.021-2.681-1.241-4.077c-0.953-6.085-5.695-9.17-9.979-12.502
	c-8.713-6.774-19.303-8.266-29.647-11.006c-15.43-4.087-28.216,2.356-40.882,8.477C98.214,31.128,88.952,39.69,78.021,44.623
	c-16.156,7.293-24.525,21.19-32.415,35.216c-4.412,7.846-6.632,17.461-7.703,26.531c-2.091,17.74-3.576,35.651-3.654,53.5
	c-0.079,18.202,2.428,36.402,2.671,54.619c0.168,12.627,7.524,16.573,18.258,13.197c13.823-4.347,27.057-10.581,40.509-16.093
	c1.1-0.451,2.005-1.495,2.847-2.408c0.395-0.43,0.764-1.571,0.56-1.758c-3.553-3.271,0.292-4.365,1.915-5.114
	c2.627-1.208,5.665-1.521,8.026-2.095c3.07,8.66,5.876,16.488,8.611,24.341c0.739,2.121,0.592,5.038,2.004,6.354
	c7.039,6.547,21.064,5.148,26.924,0.018c4.754-4.16,10.295-6.267,17.105-6.126c10.915,0.222,22.123-0.469,31.464-6.96
	c1.296-0.899,2.556-1.855,3.806-2.837C201.582,211.563,204.101,207.981,205.429,203.846z M204.04,189.42
	c-0.351,0.184-0.702,0.365-1.053,0.55c-1.916-3.143-3.833-6.284-6.372-10.444c2.539,1.267,3.903,1.951,6.079,3.04
	C203.031,184.285,203.537,186.854,204.04,189.42z M201.656,168.628c-1.205-0.436-2.411-0.872-3.795-1.369
	c0.475,1.601,1.001,3.402,1.747,5.944c-1.255,0.12-3.046,0.831-3.912,0.226c-0.824-0.577-1.088-2.595-0.877-3.861
	c0.38-2.344,1.287-4.605,2.401-8.309c1.771,1.442,3.561,2.564,4.842,4.113C202.54,165.951,201.826,167.517,201.656,168.628z
	 M201.773,134.841c0.734,0.928-1.448,5.915-2.036,5.865c-3.865-0.336-5.494-3.142-5.556-9.344
	C197.449,132.72,200.425,133.135,201.773,134.841z M195.305,115.176c-0.374,3.787-0.737,7.436-1.214,12.275
	C189.611,120.921,190.311,116.741,195.305,115.176z M191.724,138.904c-0.702,3.593-1.401,7.186-2.104,10.777
	c-0.805,0.117-1.608,0.229-2.413,0.343c-0.928-2.885-2.522-5.778-2.49-8.651c0.015-1.334,3.198-2.633,4.941-3.946
	C190.349,137.921,191.036,138.413,191.724,138.904z M191.109,109.583c-2.337,1.714-5.242,3.844-8.15,5.976
	c-0.029-3.059-5.465-7.77,2.042-8.707c0.474-0.059,0.79-2.234,0.992-3.458c0.313-1.905,0.471-3.838,0.693-5.76
	c0.544,0.063,1.088,0.126,1.626,0.188C189.182,101.471,190.051,105.118,191.109,109.583z M179.407,135.206
	c-3.355-1.931-4.102-4.722-1.778-7.24c1.035-1.127,3.961-0.512,6.029-0.685c0.097,0.661,0.193,1.322,0.289,1.983
	C182.491,131.169,181.037,133.073,179.407,135.206z M178.972,159.506v-12.463C185.715,152.596,185.469,157.049,178.972,159.506z
	 M189.393,89.457c-0.302,1.876-1.677,3.582-3.405,6.913c-2.212-3.274-4.57-5.744-4.163-6.348c1.223-1.81,3.521-2.886,5.403-4.25
	C188.006,87.011,189.564,88.372,189.393,89.457z M185.265,67.328c-0.146,6.681,0.93,13.337-6.313,15.532v-9.704
	c-3.61-0.959-3.698-5.039-3.37-9.184c0.148-1.921,0.556-3.883,1.293-5.641c0.135-0.316,3.358-0.063,3.572,0.513
	c0.702,1.897,0.723,4.062,0.897,6.131c0.038,0.434-0.377,0.905-0.682,1.573C182.351,66.833,183.866,67.09,185.265,67.328z
	 M176.295,99.824c-2.759,3.382-6.092,2.176-7.555-3.248c1.923,0.474,3.172,0.783,3.938,0.969c0.591-1.844,1.088-3.393,1.585-4.943
	c1.013,0.495,2.867,0.951,2.891,1.493C177.248,96.023,177.365,98.509,176.295,99.824z M173.527,47.168
	c2.469,0.483,4.716,0.923,6.962,1.365c-0.936,2.548-1.872,5.096-2.843,7.728C171.643,54.719,173.48,50.82,173.527,47.168z
	 M164.785,34.459c2.153,0.101,5.17-0.609,6.226,0.519c1.162,1.239,0.515,4.17,0.655,6.365c-0.614,0.394-1.229,0.787-1.843,1.182
	c-2.139-2.154-4.277-4.308-6.419-6.461C163.864,35.529,164.323,34.995,164.785,34.459z M131.361,156.568
	c2.305-0.608,3.694-0.977,5.813-1.535c0.444,5.175,0.843,9.826,1.369,15.956c-2.905-0.935-6.488-1.533-6.494-2.18
	c-0.047-3.458,0.795-6.928,1.491-11.419C134.009,157.563,133.137,157.236,131.361,156.568z M120.918,65.599
	c-2.201,3.269-3.235,6.407-5.314,7.438c-2.049,1.015-5.749-5.494-5.187-9.813c0.178-1.374,2.787-3.721,2.953-3.609
	C115.768,61.197,117.937,63.125,120.918,65.599z M117.732,53.067c2.698,1.156,6.246-3.527,7.77,0.97
	c0.438,1.293-0.188,2.949-0.326,4.438c-0.535,0.085-1.069,0.17-1.603,0.253C121.626,56.843,119.679,54.955,117.732,53.067z
	 M115.327,75.738c3.757,0.226,7.512,0.453,11.266,0.677c0.043,0.814,0.081,1.627,0.119,2.438c-3.445,0.849-6.891,1.695-11.385,2.8
	V75.738z M125.986,100.532c-0.362-4.016-0.646-7.166-0.967-10.724C131.439,92.437,131.961,95.796,125.986,100.532z M138.379,95.506
	c-0.818-0.292-1.641-0.584-2.463-0.875v-13.86c0.854-0.206,1.711-0.407,2.565-0.61c1.396,2.937,3.666,5.81,3.889,8.833
	C142.521,91.057,139.81,93.328,138.379,95.506z M139.73,107.614c-1.89,0.469-3.788,0.938-5.684,1.406
	c-0.463-0.322-0.925-0.642-1.384-0.965c1.006-2.415,2.019-4.833,3.32-7.953C137.537,103.216,138.458,105.061,139.73,107.614z
	 M137.347,67.417c-1.454-3.716-2.729-6.987-3.631-9.29c3.241-2.13,5.231-3.436,7.483-4.914
	C143.399,58.886,142.694,62.839,137.347,67.417z M135.226,71.534c0.427-0.247,2.007,0.962,2.609,1.814
	c0.234,0.33-0.591,2.012-1.24,2.253c-2.033,0.755-4.213,1.117-6.334,1.632c-0.283-0.463-0.564-0.923-0.849-1.384
	C131.326,74.369,133.148,72.736,135.226,71.534z M128.304,125.543c2.609,1.153,5.409,2.391,9.373,4.146
	c-2.983,2.13-6.026,4.307-9.52,6.803C125.819,131.994,123.224,128.583,128.304,125.543z M135.834,146.224
	c-1.384-1.641-0.819-4.923-1.182-8.039c4.353,1.258,7.46,2.156,10.742,3.102c-0.456,1.849-1.079,4.361-2.024,8.174
	C140.699,148.412,137.385,148.062,135.834,146.224z M149.818,58.384c-1.284-2.277-2.568-4.556-3.845-6.816
	c2.952-1.152,4.818-1.882,6.686-2.612c0.819,1.926,1.69,3.976,2.563,6.026c1.741,1.899,3.479,3.798,6.352,6.931
	c-3.051,0.465-5.507,0.837-7.949,1.208c-0.011,0.055-0.021,0.111-0.032,0.167c-0.073-0.022-0.146-0.045-0.22-0.068
	c-2.742,2.643-5.479,5.292-8.217,7.942c-0.592-0.252-1.183-0.505-1.773-0.756c0.755-3.038,1.516-6.074,2.385-9.55
	c2.803,0.871,5.21,1.619,7.605,2.364c0.025-0.023,0.05-0.047,0.074-0.071c0.06-0.009,0.119-0.018,0.178-0.027
	c0.528-2.715,1.056-5.43,1.586-8.142C153.417,56.094,151.617,57.239,149.818,58.384z M154.952,142.415
	c-0.421-0.1-0.842-0.205-1.261-0.308c-0.726-2.396-1.62-4.757-2.089-7.199c-0.204-1.068,0.457-2.306,0.726-3.464
	c1.211,0.696,3.435,1.36,3.458,2.095C155.88,136.485,155.289,139.454,154.952,142.415z M154.845,173.229
	c-0.009,0.229-0.516,0.437-1.346,1.092c-0.46-1.019-0.951-1.609-0.966-2.218c-0.053-2.095,0.064-4.195,0.114-6.296
	c0.793,0.144,2.272,0.252,2.278,0.433C155.031,168.563,154.955,170.901,154.845,173.229z M149.298,88.129
	c-1.106-3.52-2.241-7.126-3.517-11.188c4.473-0.648,8.197-0.513,9.367,5.388c0.532-1.413,0.743-1.974,0.957-2.537
	C157.466,86.788,156.875,87.552,149.298,88.129z M144.31,153.21c0.266-0.55,3.688-0.403,4.854,0.475
	c4.113,3.104,1.079,5.64-1.246,8.636C144.195,159.775,142.504,156.919,144.31,153.21z M150.459,181.438
	c1.387,1.203,2.771,2.402,4.9,4.251c-0.305-2.519-0.479-3.973-0.658-5.424c0.43-0.368,0.863-0.74,1.293-1.108
	c1.913,1.182,3.826,2.36,5.368,3.314c-3.13,3.341-5.506,5.877-8.721,9.312c-1.133-2.899-2.429-6.231-3.73-9.563
	C149.429,181.959,149.944,181.699,150.459,181.438z M159.713,169.125c0.544-0.77,1.381-1.475,1.573-2.322
	c0.393-1.709,0.437-3.493,0.623-5.249c0.237-0.05,0.478-0.103,0.717-0.155c0.597,1.902,1.489,3.774,1.677,5.714
	c0.108,1.121-0.922,2.35-1.439,3.528C161.813,170.138,160.763,169.629,159.713,169.125z M161.023,154.767
	c-4.148-2.75-3.813-4.4,1.5-7.325C165.143,151.139,165.143,151.139,161.023,154.767z M159.42,97.294
	c-0.009-2.083,0.386-4.169,0.649-6.253c0.978,0.117,1.954,0.233,2.932,0.353c-0.205,2.264-0.41,4.529-0.614,6.794
	C161.348,97.889,159.42,97.595,159.42,97.294z M158.794,49.442c2.832-2.052,4.804-3.481,7.211-5.226
	c0.925,3.961,1.759,7.538,2.616,11.2C160.455,58.776,158.844,57.701,158.794,49.442z M164.814,63.458
	c1.718-1.567,4.055-2.452,6.601-3.887v10.215c-1.823-2.756-2.832-4.283-3.848-5.818c-0.553,0.341-1.032,0.467-1.091,0.701
	c-0.369,1.4-0.635,2.824-0.937,4.24c-0.69-0.351-2.007-0.788-1.975-1.037C163.779,66.338,163.841,64.347,164.814,63.458z
	 M155.616,44.076c-1.249-2.232-2.48-4.432-3.171-5.67c1.645-2.302,2.973-4.162,4.395-6.154
	C160.4,39.704,160.096,42.582,155.616,44.076z M149.005,22.019c2.045,2.139,4.371,3.489,4.436,4.941
	c0.067,1.486-2.077,3.073-3.257,4.617c-1.904-1.818-3.809-3.638-5.713-5.456C145.688,25.019,146.904,23.917,149.005,22.019z
	 M138.414,29.021c1.13-0.294,3.02,2.317,5.693,4.563c-2.955,2.343-4.997,5.094-6.425,4.808c-1.778-0.358-4.314-3.316-4.195-4.98
	C133.61,31.742,136.41,29.543,138.414,29.021z M130.396,47.287c0.688-2.26,3.063-4.01,5.368-6.758
	c3.008,6.202,2.598,9.856-3.273,12.886C131.662,51.217,129.901,48.91,130.396,47.287z M129.202,65.642
	c1.635,4.42-0.366,6.95-4.503,8.063c-0.715-0.3-1.431-0.598-2.144-0.896c1.185-2.845,2.351-5.699,3.685-8.473
	C126.27,64.276,128.93,64.904,129.202,65.642z M122.89,33.833c1.489-0.067,3.945-0.686,4.285-0.097
	c0.927,1.631,1.737,4.049,1.152,5.626c-0.632,1.717-2.882,2.837-4.277,4.084C118.586,40.397,123.82,36.894,122.89,33.833z
	 M106.371,36.482c-0.341,5.971-2.747,7.23-8.485,4.027C101.232,38.921,103.619,37.789,106.371,36.482z M90.085,44.81
	c2.317,0.461,4.634,0.923,7.152,1.426c-0.595,1.761-1.118,3.303-2.033,6.016c-2.227-2.381-3.922-4.196-5.617-6.009
	C89.753,45.767,89.919,45.288,90.085,44.81z M61.992,129.297c-1.217,4.71-2.253,8.712-3.287,12.721
	c-0.478-0.135-0.957-0.264-1.434-0.398C55.526,132.775,56.423,129.624,61.992,129.297z M51.272,122.1
	c5.532,2.634,1.049,6.068,1.224,8.946c0.038,0.62-2.415,1.393-3.721,2.095c-0.345-0.327-0.689-0.655-1.033-0.982
	C48.906,128.847,50.068,125.528,51.272,122.1z M46.622,144.083c0.544-0.079,1.09-0.158,1.635-0.24
	c1.205,3.634,2.411,7.267,3.978,11.995c-1.582-0.507-2.496-0.819-3.423-1.089c-0.986-0.283-1.985-0.521-3.188-0.834
	C45.97,150.507,46.296,147.295,46.622,144.083z M48.189,160.811c6.212,3.024,5.916,9.21,0.857,12.729
	c-0.663-0.066-1.327-0.131-1.989-0.195C47.417,169.353,47.778,165.363,48.189,160.811z M55.307,177.621
	c0.958,2.686,1.917,5.368,2.901,8.13c-2.487,0.819-5.079,1.674-7.931,2.612C43.473,181.945,50.466,180.45,55.307,177.621z
	 M84.854,206.128c-1.42,0.066-3.027,1.491-4.093,2.697c-3.3,3.727-6.088,3.782-8.729,0.421c-2.945,2.738-5.74,5.649-8.862,8.15
	c-2.678,2.142-5.618,4.043-8.674,5.591c-1.16,0.588-3.092,0.202-4.42-0.351c-0.556-0.231-0.644-2.054-0.603-3.14
	c0.059-1.516,0.439-3.019,0.945-6.173c0.906,2.423,1.247,3.335,1.818,4.865c5.6-4.748,5.438-11.258,6.706-17.334
	c-1.48-0.726-3.476-1.073-3.821-2.024c-0.503-1.381-0.408-3.809,0.499-4.681c1.398-1.34,4.96-0.632,3.566-4.348
	c0.764-0.17,2.137-0.6,2.191-0.471c0.421,1,0.98,2.197,0.757,3.162c-0.542,2.358-1.481,4.626-2.263,6.928
	c0.855,0.357,1.713,0.708,2.568,1.065c1.036-1.814,2.867-3.593,2.945-5.447c0.165-3.968,1.568-8.97-4.258-10.023
	c-0.617-2.633-1.166-4.973-2.145-9.145c2.276,1.322,3.666,2.095,5.016,2.931c1.055,0.653,2.066,1.373,3.092,2.071
	c-0.212-1.65-0.424-3.31-0.66-5.151c-5.626-1.115-6.681-3.461-3.866-10.717c1.042,0.646,2.355,1.019,2.895,1.879
	c1.961,3.118,3.778,6.348,5.433,9.643c1.331,2.65,2.57,4.13,5.434,1.523c0.705-0.641,2.381-0.213,4.808-0.34
	c-1.124,0.52-1.847,0.854-2.175,1.005c0.184,3.151,0.401,5.429,0.422,7.717c0.015,1.451-0.355,2.914-0.287,4.359
	c0.009,0.204,2.228,0.582,2.273,0.456c0.513-1.404,0.804-2.888,1.146-4.354c0.139-0.591,0.256-1.185,0.383-1.778
	c0.459-0.006,0.919-0.012,1.378-0.021c0.31,3.022,0.619,6.041,0.77,7.516c2.076,2.765,4.254,4.471,4.723,6.56
	C90.561,202.701,89.759,205.891,84.854,206.128z M102.518,66.379C92.866,65.475,91.38,63.794,91.8,54.257
	C98.143,54.384,104.557,61.636,102.518,66.379z M106.535,56.555c-2.24-1.166-4.478-2.333-6.717-3.496
	c0.465-0.999,0.931-1.998,1.396-2.997c2.181,1.009,4.419,1.926,6.46,3.166C107.888,53.358,106.941,55.4,106.535,56.555z
	 M108.907,42.955c1.397-0.295,3.057-1.214,4.135-0.758c2.342,0.991,4.385,2.686,6.371,3.976c-3.117,4.335-6.375,5.067-9.516,0.413
	C109.233,45.601,109.22,44.177,108.907,42.955z M111.599,86.71c0.878,5.424,1.554,9.593,2.377,14.675
	C108.828,97.742,108.022,92.987,111.599,86.71z M114.042,119.989c1.908,1.429,4.656,2.515,5.429,4.407
	c0.525,1.285-1.719,3.702-2.726,5.615c-1.681-2.53-3.361-5.063-5.042-7.595C112.482,121.609,113.262,120.798,114.042,119.989z
	 M116.388,147.547c-0.526-4.207-0.891-7.118-1.396-11.129c2.992,1.428,5.059,2.416,7.716,3.688
	C120.583,142.608,118.973,144.504,116.388,147.547z M119.146,152.219c5.968,0.456,8.64-1.223,7.115-6.778
	c0.854,0.204,1.705,0.409,2.557,0.614c-0.497,3.776-0.778,7.609-1.708,11.277c-0.158,0.623-3.568,1.279-4.625,0.6
	C121.105,157.043,120.576,154.836,119.146,152.219z M127.593,178.776c-6.622-1.319-4.884-5.884-5.471-9.112
	c-0.114-0.624,1.283-1.524,2.223-2.563C125.612,171.659,126.495,174.83,127.593,178.776z M122.852,190.874
	c0.417,0.749,0.833,1.5,1.542,2.776c0.673-2.142,1.222-3.889,1.793-5.708c4.932,4.713,3.633,10.733-3.067,13.004
	c-0.493-3.309-0.971-6.521-1.45-9.733C122.063,191.099,122.458,190.984,122.852,190.874z M128.813,214.015
	c-0.374,0.992-2.382,1.369-3.642,2.027c-0.73-2.773-1.458-5.547-2.188-8.317C128.532,208.053,130.176,210.404,128.813,214.015z
	 M132.993,176.942c1.957,2.92,3.361,5.025,4.771,7.126c-0.345,0.419-0.696,0.837-1.041,1.253c-2.145-0.445-4.289-0.896-7.285-1.521
	C130.668,181.43,131.451,179.915,132.993,176.942z M141.229,222.967c-4.722,1.451-7.721,0.594-8.121-4.619
	C140.767,215.863,141.948,216.52,141.229,222.967z M146.548,180.777c-0.135,0.764-2.303,1.853-3.23,1.612
	c-0.944-0.246-2.224-2.013-2.124-2.984c0.352-3.458-0.1-7.577,6.214-9.561C147.127,174.169,147.112,177.521,146.548,180.777z
	 M150.848,209.056c-1.544-0.62-2.65-2.337-3.943-3.595c0.591-0.627,1.179-1.253,1.768-1.876c1.992,1.278,3.984,2.561,5.974,3.842
	C153.355,208.029,151.749,209.419,150.848,209.056z M159.508,198.428c0.5-2.118,0.994-4.233,1.492-6.349
	c3.294,6.893,2.925,7.875-2.593,10.169c-0.515-1.445-1.023-2.873-1.808-5.07C158.115,197.828,159.051,198.229,159.508,198.428z
	 M160.962,218.362c-0.939-1.322-2.771-2.794-2.587-3.938c0.231-1.416,2.133-2.558,3.315-3.821c1.088,1.164,2.177,2.323,3.99,4.266
	C163.674,216.358,162.316,217.361,160.962,218.362z M165.172,137.632c-1.147-2.645-2.3-5.286-3.446-7.932
	C168.231,132.386,168.231,132.386,165.172,137.632z M165.049,81.572c0.626-0.865,3.718,0.056,5.991,0.169
	c-1.176-1.117-2.668-2.539-5.178-4.928c2.574-0.889,4.599-1.587,6.796-2.346c1.77,10.441,1.217,12.32-4.204,15.382
	C166.025,87.592,161.95,85.841,165.049,81.572z M168.34,113.017c0.395-0.497,0.787-0.998,1.179-1.495
	c2.399,1.648,4.792,3.297,7.191,4.945c-0.764,0.907-1.527,1.817-2.288,2.725C172.397,117.136,170.367,115.075,168.34,113.017z
	 M175.967,167.525c1.299,0.248,2.598,0.493,2.645,0.506c1.139-1.951,2.001-3.435,2.867-4.915c0.427,0.281,0.854,0.562,1.278,0.849
	c-0.526,2.867-1.053,5.739-1.775,9.672c-2.256-1.814-4.075-3.276-5.893-4.739C175.382,168.44,175.674,167.98,175.967,167.525z
	 M176.335,184.373c-2.398-2.964,0.07-4.175,3.692-5.702c0.512,3.014,0.954,5.626,1.393,8.235
	C179.688,186.094,177.418,185.713,176.335,184.373z M184.504,189.499c0.649-0.059,1.305-0.114,1.954-0.17
	c0.188,3.744,0.371,7.489,0.562,11.348C181.169,200.364,181.169,200.364,184.504,189.499z M186.979,183.268v-9.16
	c1.223,0.331,3.197,0.313,3.534,1.051C191.812,177.973,192.017,180.845,186.979,183.268z M192.291,194.694
	c-1.208-0.57-1.146-3.82-1.661-5.851c0.626-0.208,1.252-0.416,1.878-0.621c1.627,0.919,3.253,1.838,4.915,2.776
	C197.317,194.472,195.114,196.034,192.291,194.694z"/>
<path fill-rule="evenodd" clip-rule="evenodd" d="M70.816,192.969c2.693,3.58,4.214,5.581,5.708,7.606
	c0.823,1.111,1.603,2.258,2.403,3.391c-1.285,0.682-2.512,1.523-3.866,2.004c-1.113,0.392-2.378,0.351-3.215,0.456
	c-1.763-2.112-4.616-4.014-4.659-5.974C67.135,198.047,69.434,195.59,70.816,192.969z"/>
<path fill-rule="evenodd" clip-rule="evenodd" d="M67.125,181.149c2.652,0.877,5.306,1.758,7.864,2.604
	c-0.298,2.545-0.557,4.742-1.021,8.694c-2.691-4.607-4.694-8.033-6.698-11.456C67.265,180.994,67.125,181.149,67.125,181.149z"/>
</svg>
