<?xml version="1.0" encoding="utf-8"?>
<!-- Generator: Adobe Illustrator 16.0.0, SVG Export Plug-In . SVG Version: 6.00 Build 0)  -->
<!DOCTYPE svg PUBLIC "-//W3C//DTD SVG 1.1//EN" "http://www.w3.org/Graphics/SVG/1.1/DTD/svg11.dtd">
<svg version="1.1" id="Layer_1" xmlns="http://www.w3.org/2000/svg" xmlns:xlink="http://www.w3.org/1999/xlink" x="0px" y="0px"
	 width="250px" height="250px" viewBox="0 0 250 250" enable-background="new 0 0 250 250" xml:space="preserve">
<path fill="none" stroke="#000000" stroke-miterlimit="10" d="M243.5,233.114c0,6.288-5.098,11.386-11.387,11.386H16.886
	c-6.288,0-11.386-5.098-11.386-11.386V17.886C5.5,11.598,10.598,6.5,16.886,6.5h215.229c6.287,0,11.386,5.098,11.386,11.386
	L243.5,233.114L243.5,233.114z"/>
<path fill-rule="evenodd" clip-rule="evenodd" d="M118.464,220.943c-5.462-1.55-10.904-3.177-16.396-4.615
	c-2.778-0.729-5.648-1.107-9.432-1.827c0.914,1.627,1.261,2.247,2.02,3.602c-2.665-0.615-4.712-1.468-6.759-1.465
	c-2.741,0-5.498,0.569-8.217,1.066c-3.177,0.581-6.327,1.326-9.479,2.035c-8.13,1.833-16.219,3.877-24.396,5.468
	c-5.464,1.063-9.7-5.755-7.392-11.659c2.401-6.146,7.607-8.85,13.967-8.552c6.184,0.288,12.26,2.543,18.419,3.745
	c3.873,0.757,7.814,1.161,12.397,1.819c-3.912-3.232-7.138-5.388-9.718-8.15c-3.638-3.892-2.643-8.035,2.367-9.965
	c5-1.924,10.286-3.108,15.293-5.016c1.498-0.571,3.653-2.629,3.513-3.761c-0.798-6.491-2.625-12.864-3.298-19.36
	c-1.191-11.512-5.874-21.766-10.481-32.101c-2.69-6.034-6.39-11.889-7.65-18.221c-1.345-6.769-0.458-14.004-0.357-21.036
	c0.113-8.01,0.758-16.027,0.558-24.025c-0.157-6.238,1.412-11.838,4.134-17.266c0.92-1.835,2.638-3.589,2.742-5.449
	c0.243-4.303,4.273-4.796,6.123-4.655c4.261,0.324,8.583,1.86,12.524,3.679c2.909,1.344,5.253,3.91,7.304,6.783
	c-4.583-2.687-9.167-5.375-13.75-8.063c-0.262,0.369-0.523,0.736-0.785,1.104c2.32,1.631,4.567,3.381,6.975,4.871
	c6.017,3.727,12.094,7.36,18.175,10.983c5.927,3.528,12.313,2.45,18.44,1.159c7.59-1.6,15.236-3.407,22.443-6.196
	c5.713-2.21,10.931-5.836,16.115-9.215c3.238-2.111,5.963-4.994,9.023-7.399c0.858-0.674,2.082-0.885,3.138-1.306
	c-5.028,5.14-10.054,10.278-15.125,15.464c11.051-2.226,14.789-8.354,15.304-15.457c1.858-1.868,2.896-3.407,0.967-6.333
	c-1.097-1.664-0.043-4.742,0.042-7.184c1.244,0.317,3.155,0.233,3.622,1.014c2.921,4.888,6.886,9.704,7.918,15.044
	c1.673,8.633,4.86,16.23,8.942,23.912c3.015,5.678,4.938,12.412,5.453,18.827c0.717,8.943,2.315,18.184-1.527,27.005
	c-1.75,4.017-3.394,8.103-4.694,12.279c-0.855,2.743-0.885,5.737-1.528,8.562c-0.974,4.267-1.946,8.552-3.301,12.709
	c-1.864,5.713-2.551,11.255-1.014,17.272c2.191,8.555,4.093,17.258-0.759,25.788c-0.678,1.19,0.309,3.305,0.47,4.996
	c0.303,3.182,0.971,6.4,0.711,9.537c-0.197,2.384-1.912,3.738-4.323,1.543c-1.086-0.992-2.168-1.99-3.244-2.989
	c-2.484-2.296-5.155-2.979-8.745-2.964c-4.821,0.023-9.614-1.915-14.48-2.571c-8.735-1.18-16.907,0.106-23.541,6.621
	c-0.839,0.824-1.805,1.553-2.499,2.481c-3.868,5.165-8.045,7.409-14.949,4.711c-4.986-1.945-9.141,2.494-12.849,4.796
	c1.892,3.031,3.564,5.713,5.236,8.394c-0.405,0.37-0.81,0.743-1.214,1.115c-0.833-0.524-1.664-1.053-2.521-1.583
	c0.079-4.24-2.43-6.397-6.127-7.447c-2.098-0.596-4.384-0.612-6.41-1.367c-8.16-3.032-16.122-2.471-24.1,1.173
	C94.816,212.039,107.29,213.505,118.464,220.943z M169.571,178.401c-4.403,4.771-7.753,10.191-15.32,11.174
	c-7.624,0.992-14.954,2.501-21.598-2.272c-5.832-4.188-11.412-8.776-16.745-13.582c-3.66-3.295-7.104-7.063-6.853-11.127
	c-1.913-1.747-3.587-2.606-4.212-3.954c-5.133-11.073-10.141-22.208-15.014-33.398c-1.077-2.473-1.275-5.318-2.222-7.863
	c-1.979-5.329-4.311-10.526-6.26-15.864c-1.539-4.213-2.72-8.558-4.348-13.761c-2.298,8.611-3.821,16.752-2.094,24.531
	c1.6,7.203,5.703,13.824,8.397,20.82c3.367,8.744,6.966,17.46,9.446,26.469c2.276,8.27,3.277,16.899,4.68,25.396
	c0.541,3.274-1.668,3.809-4.435,4.536c-5.863,1.543-11.596,3.647-17.236,5.894c-1.03,0.41-2.026,2.663-1.882,3.935
	c0.423,3.76,11.036,8.987,14.729,8.68c6.146-0.514,12.735-1.2,18.474,0.467c5.316,1.542,9.405,1.679,14.205-0.855
	c2.699-1.428,6.805-2.998,9.056-1.93c6.188,2.937,9.208-0.247,12.652-4.269c7.443-8.678,16.909-11.668,28.039-9.158
	c3.13,0.706,6.243,2.724,9.246,2.506c7.256-0.535,13.247,1.323,18.198,6.624c0.111,0.12,0.541-0.061,1.79-0.24
	c-0.48-2.876-0.265-6.177-1.634-8.572c-1.595-2.795-1.83-4.971-0.538-7.743c2.914-6.238,3.527-12.728,1.41-19.339
	c-2.756-8.603-2.996-17.009,1.385-25.226c0.593-1.111,0.682-2.511,0.896-3.795c1.415-8.495,1.533-17.204,6.054-25.083
	c1.893-3.304,2.733-7.561,2.91-11.436c0.435-9.729-0.344-19.457-3.552-28.733c-1.016-2.941-1.014-7.134-6.685-8.321
	c0.649,2.659,0.835,4.62,1.597,6.326c4.841,10.851,2.678,21.238-1.766,31.553c-1.423,3.299-2.965,6.604-3.854,10.061
	c-3.768,14.663-7.141,29.427-11.041,44.053c-1.112,4.17-3.27,8.173-7.51,10.484c0.01-1.49,0.574-2.647,1.162-3.799
	c1.601-3.13,3.857-6.095,4.704-9.415c3.197-12.533,5.881-25.196,8.88-37.782c1.032-4.349,1.604-9.108,3.839-12.806
	c4.002-6.635,6.063-13.557,5.458-21.09c-0.283-3.536-2.357-6.894-3.042-10.443c-0.917-4.747-1.063-9.645-1.987-14.39
	c-0.331-1.707-1.965-3.161-3.002-4.73c-3.849,2.596-5.652-0.412-7.688-3.357c-4.413,6.303-10.849,8.258-17.453,10.126
	c-6.608,1.868-13.006,4.513-19.649,6.228c-6.339,1.634-12.879,2.505-20.383,3.909c2.315,0.854,3.569,1.318,4.822,1.781
	c-18.793-1.976-33.848-12.296-49.034-22.511c-2.007,3.565-3.956,6.323-5.162,9.373c-1.218,3.077-1.698,6.447-2.502,9.688
	c2.87-2.664,7.114-4.356,5.681-9.449c-0.146-0.523,2.396-2.563,3.689-2.563c2.281,0.001,4.644,0.791,4.686,4.049
	c0.043,3.265-1.43,5-4.594,5.326c-4.574,0.471-9.57,6.657-8.605,11.053c0.871,3.964,1.713,8.023,3.302,11.725
	c4.515,10.523,8.55,21.09,11.435,32.28c2.577,9.994,7.066,19.708,12.054,28.812c5.719,10.433,9.99,21.736,19.513,30.09
	c8.975,7.875,17.756,12.898,30.107,9.438c5.482-1.537,9.331-4.688,12.771-8.692c0.639-0.743,0.615-2.928-0.017-3.745
	c-2.578-3.347-5.451-6.479-8.363-9.547c-0.548-0.574-1.938-0.93-2.671-0.66c-10.723,3.916-20.858-0.226-31.13-2.22
	c-0.683-0.135-1.163-1.316-1.737-2.014c0.655-0.476,1.315-1.364,1.964-1.355c4.082,0.054,7.969-0.04,10.54-4.064
	c0.307-0.484,1.94-0.091,2.958-0.168c4.019-0.316,8.038-0.658,12.725-1.043c-1.924-3.502-3.426-6.164-4.857-8.861
	c-1.411-2.65-2.748-5.337-4.119-8.008c0.501-0.281,1.006-0.563,1.511-0.846c10.493,16.454,20.632,33.177,34.572,47.207
	c-1.331-6.597-3.149-12.901-5.567-18.969c-2.844-7.131-6.339-13.997-9.29-21.089c-1.914-4.603-3.336-9.41-5.018-14.111
	c-1.836-5.125-3.423-10.364-5.67-15.304c-1.812-3.977-3.959-3.845-6.424-0.233c-0.969,1.421-2.065,2.753-3.105,4.125
	c0.136-2.807,1.054-5.209,2.059-7.573c1.991-4.69,4.323-5.569,8.375-2.675c1.787,1.276,3.636,3.204,4.284,5.213
	c3.47,10.719,6.555,21.563,9.805,32.356c0.849,2.815,1.387,5.833,2.792,8.355c6.569,11.781,10.016,24.313,10.148,37.736
	c-0.402,0.243-0.801,0.481-1.199,0.722C176.339,187.303,173.173,183.139,169.571,178.401z M77.677,213.771
	c-8.377-2.95-16.588-6.864-25.712-6.157c-8.063,0.622-11.971,4.671-11.522,11.039c0.196,2.809,1.616,4.122,4.268,3.724
	c4.788-0.724,9.625-1.366,14.283-2.626C65.299,218.045,71.456,215.792,77.677,213.771z M134.508,158.699
	c0.049,0.541,0.097,1.084,0.147,1.624c6.508,1.752,17.014,4.115,20.754-0.459c-0.754-1.148-1.538-2.345-2.022-3.084
	C146.838,157.445,140.674,158.072,134.508,158.699z"/>
<path fill-rule="evenodd" clip-rule="evenodd" d="M115.601,116.563c-4.246-1.25-8.509-2.449-12.724-3.797
	c-0.762-0.243-1.704-0.978-1.92-1.683c-0.941-3.082-1.649-6.234-2.439-9.362c2.401-0.466,4.859-1.51,7.192-1.281
	c5.505,0.538,11.197,1.018,16.299,2.912c1.965,0.731,3.246,5.157,3.532,8.029c0.286,2.875-2.158,4.64-5.288,4.58
	c-1.463-0.029-2.922-0.229-4.383-0.351C115.779,115.929,115.691,116.245,115.601,116.563z M121.165,112.55
	c1.961-3.457,1.618-5.855-0.937-6.2c-6.115-0.828-12.292-1.188-18.445-1.736c-0.173,1.003-0.348,2.006-0.523,3.009
	c5.634,3.978,11.613,6.295,19.189,2.102C120.568,110.193,120.817,111.177,121.165,112.55z"/>
<path fill-rule="evenodd" clip-rule="evenodd" d="M185.466,95.018c0.017,6.101-4.971,10.072-10.63,11.827
	c-2.756,0.856-5.521,4.255-8.923,1.303c-2.351-2.035-4.743-4.032-6.9-6.257c-0.206-0.212,0.885-2.363,1.785-2.854
	c4.552-2.479,9.252-4.687,13.874-7.042c0.903-0.461,1.638-1.247,2.534-1.728C182.032,87.683,185.372,89.621,185.466,95.018z
	 M167.645,105.695c6.59-1.05,11.743-3.194,14.475-8.898c0.457-0.95,0.288-2.967-0.373-3.481c-0.78-0.608-2.691-0.583-3.632-0.024
	c-3.839,2.286-7.541,4.814-11.183,7.407c-0.914,0.65-2.194,2.312-1.946,2.756C165.586,104.541,166.979,105.187,167.645,105.695z"/>
<path fill-rule="evenodd" clip-rule="evenodd" d="M92.617,82.979c12.23,3.897,24.024,7.659,35.564,11.337
	c-3.938,6.168-9.312,0.917-13.892,0.108c-6.537-1.156-12.736-4.111-19.197-5.858C92.379,87.833,91.77,86.696,92.617,82.979z"/>
<path fill-rule="evenodd" clip-rule="evenodd" d="M191.195,74.184c-0.653,0.821-1.139,1.991-1.989,2.412
	c-6.563,3.235-13.201,6.314-19.801,9.466c-1.407,0.67-2.901,1.262-4.112,2.203c-2.717,2.11-3.793,0.458-4.998-1.77
	c10.183-4.624,20.106-9.132,30.03-13.639C190.614,73.297,190.906,73.741,191.195,74.184z"/>
</svg>
