<?xml version="1.0" encoding="utf-8"?>
<!-- Generator: Adobe Illustrator 16.0.0, SVG Export Plug-In . SVG Version: 6.00 Build 0)  -->
<!DOCTYPE svg PUBLIC "-//W3C//DTD SVG 1.1//EN" "http://www.w3.org/Graphics/SVG/1.1/DTD/svg11.dtd">
<svg version="1.1" id="Layer_1" xmlns="http://www.w3.org/2000/svg" xmlns:xlink="http://www.w3.org/1999/xlink" x="0px" y="0px"
	 width="250px" height="250px" viewBox="0 0 250 250" enable-background="new 0 0 250 250" xml:space="preserve">
<path fill="none" stroke="#000000" stroke-miterlimit="10" d="M243.5,233.114c0,6.288-5.098,11.386-11.387,11.386H16.886
	c-6.288,0-11.386-5.098-11.386-11.386V17.886C5.5,11.598,10.598,6.5,16.886,6.5h215.229c6.287,0,11.386,5.098,11.386,11.386
	L243.5,233.114L243.5,233.114z"/>
<path fill-rule="evenodd" clip-rule="evenodd" d="M57.471,221.119c-0.706-0.872-1.781-2.459-3.106-3.798
	c-6.744-6.819-7.976-14.769-5.727-23.866c1.263-5.101,1.043-9.997-1.982-15.169c-3.415-5.839-1.415-12.632-0.059-19.148
	c1.234-5.944,3.405-13.008,1.354-18.019c-3.263-7.983,2.029-13.74,2.293-20.577c0.075-1.952,3.231-3.606,3.991-5.746
	c2.423-6.836,3.853-14.062,6.656-20.72c3.451-8.199,7.713-16.081,11.967-23.914c4.683-8.625,9.454-17.229,14.736-25.492
	c6.04-9.447,9.982-20.315,18.741-27.963c3.612-3.156,9.039-2.221,11.872,1.568c7.914,10.58,15.418,21.601,24.413,31.202
	c8.857,9.456,15.606,20.247,23.12,30.58c2.692,3.703,6.251,6.8,8.763,10.605c9.479,14.355,18.682,28.894,28.01,43.354
	c5.013,7.772,3.955,16.221,3.009,24.75c-1.987,17.923-6.749,35.267-12.194,52.293c-2.596,8.115-8.653,15.126-13.246,22.575
	c-0.376,0.608-1.527,0.934-2.361,1.037c-8.968,1.1-17.952,3.051-26.913,2.957c-13.102-0.137-26.333-0.859-39.233-2.992
	c-12.034-1.989-23.737-6.034-35.518-9.405c-4.737-1.356-9.25-3.475-13.962-4.932C60.891,219.927,59.319,220.755,57.471,221.119z
	 M124.282,36.075c-0.119,0.114-0.516,0.361-0.738,0.717c-7.291,11.787-14.67,23.522-21.788,35.415
	c-2.408,4.024-4.332,8.374-6.14,12.714c-2.173,5.208-3.926,10.59-5.977,15.854c-2.072,5.321-4.417,10.541-6.409,15.892
	c-3.845,10.336-5.825,21.096-6.177,32.083c-0.462,14.343-0.613,28.696-0.748,43.048c-0.031,3.456,2.098,5.329,5.551,5.872
	c3.395,0.531,6.78,1.2,10.124,2.008c22.759,5.52,45.857,6.131,69.09,4.83c4.931-0.273,9.892-0.391,14.768-1.074
	c5.804-0.816,6.806-2.354,7.424-8.154c0.758-7.141,1.835-14.245,2.63-21.378c0.945-8.487,2.526-17.003,2.415-25.483
	c-0.179-13.334-4.544-25.749-10.498-37.68C164.008,83.078,147.127,57.638,124.282,36.075z M75.798,73.239
	c5.182,3.771,6.186,7.159,4.69,12.77c-1.855,6.957-7.069,9.491-13.355,11.104c-1.535,0.393-3.383,1.788-3.982,3.193
	c-1.694,3.981-2.896,8.186-4.141,12.347c-0.902,3.018-0.877,5.662,2.422,7.677c1.41,0.862,2.498,3.024,2.815,4.763
	c1.462,8.014-1.833,14.309-9.317,17.975c-4.155,2.034-2.031,5.813-2.582,8.766c-0.227,1.217,1.294,2.825,2.151,4.169
	c1.543,2.42,3.992,4.581,4.625,7.196c1.525,6.307,0.802,12.406-3.498,17.867c-2.684,3.408-1.729,7.182,2.07,8.92
	c3.197,1.459,6.688,2.272,10.483,3.515c0.188-3.234,0.338-5.806,0.499-8.577c1.078,3.017,2.095,5.866,2.875,8.042
	c0-7.457-0.035-15.491,0.007-23.529c0.044-8.359-0.223-16.745,0.335-25.072c0.799-11.973,3.52-23.587,8.181-34.703
	c6.049-14.426,11.413-29.139,19.757-42.534c7.03-11.281,13.563-22.874,20.199-34.394c0.445-0.772,0.311-2.379-0.218-3.129
	c-2.356-3.341-4.905-6.552-7.479-9.733c-1.659-2.049-3.336-2.412-4.93,0.228c-3.763,6.23-7.59,12.42-11.455,18.729
	c5.224,4.858,6.197,10.952,3.938,16.611c-2.51,6.298-8.653,8.032-17.23,6.615C80.415,65.716,78.167,69.377,75.798,73.239z
	 M65.053,196.203c0.994,4.105,1.334,7.348,6.353,5.68c1.273-0.42,3.562,0.416,4.603,1.457c2.087,2.088,3.583,4.752,5.424,7.104
	c1.72,2.199,1.219,3.887-1.078,5.094c-2.771,1.457-5.624,2.762-8.774,4.297c4.637,1.477,9.212,2.934,13.529,4.31
	c1.366-2.823,2.607-5.387,3.994-8.245c-3.73-3.969-0.362-7.006,2.381-10.549c4.074,5.874,9.512,6.926,15.917,5.354
	c1.464-0.358,3.168,0.257,4.762,0.423c-0.262,1.789,0.088,4.625-0.885,5.191c-4.853,2.832-4.911,6.342-2.662,10.755
	c0.416,0.816,0.146,1.987,0.218,3.474c8.416,0.677,16.734,1.344,25.054,2.012c-4.358-3.774-4.358-3.774-0.162-9.674
	c-0.261-0.328-0.479-0.741-0.811-1.012c-2.341-1.902-5.327-3.745-2.663-7.246c2.448-3.217,4.823-0.771,7.458,0.299
	c2.098,0.855,4.856,0.91,7.098,0.371c2.64-0.632,5.282-3.314,7.577-0.072c2.28,3.221-0.628,5.143-2.649,7.117
	c-0.195,0.19-0.262,0.514-0.242,0.472c0.99,3.251,1.906,6.257,3.041,9.975c5.474-0.826,11.452-1.887,17.474-2.581
	c4.049-0.467,5.838-3.147,6.935-6.408c1.384-4.102,2.408-8.33,3.449-12.539c0.213-0.861-0.181-1.873-0.26-2.504
	C140.975,211.24,102.687,209.881,65.053,196.203z M186.516,198.006c4.518-2.983,7.536-5.364,8.516-9.7
	c2.003-8.852,4.544-17.602,6.098-26.523c0.957-5.533,1.81-11.673,0.361-16.89c-1.883-6.783-6.03-12.952-9.342-19.314
	c-1.382-2.65-3.119-5.114-5.352-8.723c-0.265,2.033-0.571,2.7-0.379,3.156c6.385,15.03,6.732,30.581,4.323,46.449
	C189.219,176.503,188.031,186.592,186.516,198.006z M182.004,222.647c5.432-5.546,8.521-12.028,9.231-21.038
	c-2.583,2.3-5.276,3.549-5.884,5.455C183.751,212.105,183.058,217.434,182.004,222.647z M91.972,226.258
	c2.963,0.899,5.603,1.7,8.86,2.688C97.733,222.327,97.347,222.225,91.972,226.258z"/>
<path fill-rule="evenodd" clip-rule="evenodd" d="M116.595,131.771c0.105-1.3-0.254-2.962,0.413-3.822
	c1.337-1.717,3.048-3.675,4.969-4.205c1.21-0.332,3.774,1.384,4.532,2.813c2.674,5.058,4.189,5.478,8.077,1.386
	c1.697-1.789,3.02-4.503,6.147-1.916c2.994,2.481,3.807,6.116,1.697,9.098c-1.514,2.132-3.231,4.124-5.119,6.507
	c0.878,0.345,1.475,0.699,2.117,0.812c3.238,0.572,5.756,2.655,5.099,5.661c-0.406,1.872-3.312,3.83-5.489,4.536
	c-3.203,1.037-3.794,2.112-1.567,4.563c1.168,1.288,2.388,2.54,3.666,3.718c2.555,2.352,2.234,4.708,0.035,7.001
	c-2.19,2.282-3.931,0.777-5.783-0.709c-1.217-0.976-2.632-1.868-4.104-2.335c-3.74-1.186-6.497,0.839-6.606,4.762
	c-0.066,2.43-0.863,4.043-3.498,4.323c-2.439,0.256-5.145-0.05-5.14-2.874c0.01-4.419-2.62-5.504-5.578-5.959
	c-3.183,1.809-6.04,3.843-9.215,5.016c-1.093,0.401-4.062-1.134-4.26-2.155c-0.34-1.761,0.386-4.102,1.45-5.671
	c1.476-2.186,3.767-3.804,5.499-5.842c0.436-0.509,0.066-1.704,0.066-2.811c-3.747,0.195-5.233-2.002-5.456-5.126
	c-0.293-4.108,1.977-6.147,8.555-7.58c-1.66-2.601-3.503-4.898-4.664-7.499c-0.833-1.865-1.158-4.185-0.912-6.203
	c0.12-0.964,2.163-2.459,3.215-2.364c1.687,0.154,3.495,1.159,4.847,2.288c1.982,1.655,3.608,3.737,5.385,5.639
	C115.512,132.471,116.053,132.121,116.595,131.771z M131.181,155.278c4.715-5.336,4.619-12.942,0-15.133
	C131.181,145.152,131.181,150.42,131.181,155.278z M115.246,148.628c0.486,0.41,0.975,0.821,1.461,1.229
	c1.584-1.772,3.263-3.479,4.686-5.375c0.317-0.423-0.265-1.521-0.431-2.306c-0.772,0.174-1.914,0.091-2.246,0.57
	C117.419,144.609,116.38,146.65,115.246,148.628z"/>
</svg>
