<?xml version="1.0" encoding="utf-8"?>
<!-- Generator: Adobe Illustrator 16.0.0, SVG Export Plug-In . SVG Version: 6.00 Build 0)  -->
<!DOCTYPE svg PUBLIC "-//W3C//DTD SVG 1.1//EN" "http://www.w3.org/Graphics/SVG/1.1/DTD/svg11.dtd">
<svg version="1.1" id="Layer_1" xmlns="http://www.w3.org/2000/svg" xmlns:xlink="http://www.w3.org/1999/xlink" x="0px" y="0px"
	 width="250px" height="250px" viewBox="0 0 250 250" enable-background="new 0 0 250 250" xml:space="preserve">
<path fill-rule="evenodd" clip-rule="evenodd" fill="#B9B9B9" d="M227.042,154.588c-0.466-5.837,0.313-11.674-0.383-17.512
	c-0.735-6.176-2.553-11.645-6.019-16.498c-0.205-1.89-0.364-3.807-0.574-5.775c-0.668-6.267-2.082-12.461-3.626-18.563
	c-3.082-12.185-8.72-24.351-16.66-34.155c-3.509-4.332-8.47-6.841-12.851-10.14c-3.222-2.426-6.855-6.224-10.233-9.161
	c-10.35-9-21.993-12.555-35.634-12.232c-24.368,0.577-45.743,10.589-64.708,25.284c-4.388,3.4-8.388,6.986-10.811,12.11
	c-1.354,2.866-2.118,5.721-2.716,8.668c-2.9,1.586-5.187,4.335-6.36,7.712c-0.241,0.694-0.484,1.382-0.728,2.071
	c-3.261,8.163-11.317,16.29-13.541,26.212c-3.892,5.908-7.086,12.099-7.175,19.524c-0.008,0.647,0.039,1.259,0.109,1.854
	c-4.225,1.852-7.394,5.619-6.871,10.957c0.111,1.132,0.298,2.23,0.521,3.313c-0.024,0.003-0.049,0.007-0.074,0.01
	c0.476,3.29-3.688,7.943-5.251,10.714c-4.02,7.127-2.241,14.53,3.042,20.3c4.56,4.981,11.178,9.133,16.54,13.2
	c5.693,4.317,12.445,8.479,19.523,9.878c3.349,0.662,6.797,0.305,10.109,0.901c3.416,0.615,5.86,1.825,9.068,3.11
	c6.329,2.535,13.266,3.617,19.978,4.627c14.341,2.158,29.922,3.991,44.416,2.755c6.658-0.568,13.119-2.175,19.598-3.71
	c6.146-1.457,12.437-2.118,18.591-3.541c6.309-1.459,12.319-4.25,17.833-7.594c4.344-2.634,9.074-4.446,13.197-7.466
	c5.818-4.263,9.999-9.594,11.81-16.685C228.851,168.148,227.572,161.244,227.042,154.588z"/>
<path fill="none" stroke="#000000" stroke-miterlimit="10" d="M243.5,233.114c0,6.288-5.098,11.386-11.387,11.386H16.886
	c-6.288,0-11.386-5.098-11.386-11.386V17.886C5.5,11.598,10.598,6.5,16.886,6.5h215.229c6.287,0,11.386,5.098,11.386,11.386
	L243.5,233.114L243.5,233.114z"/>
<path fill-rule="evenodd" clip-rule="evenodd" d="M224.99,175.013c1.39,0.808,2.782,1.619,4.604,2.679
	c-2.42,2.538-5.79,5.887-8.895,9.465c-0.699,0.812-0.473,2.426-0.891,5.013c-2.335,1.493-6.114,3.907-9.897,6.327
	c0.021,0.063-0.247-0.647-0.675-1.789c-5.139,2.827-10.041,6.017-15.345,8.291c-5.41,2.323-10.825,4.898-17.328,3.248
	c-2.068-0.527-4.813,2.378-7.421,3.091c-5.951,1.629-11.954,3.24-18.039,4.143c-4.109,0.608-8.693,0.771-11.136-5.498
	c-0.603,2.508-0.893,3.719-1.282,5.335c-21.325-0.119-42.629-1.446-63.124-7.755c-20.308-6.253-40.187-13.843-55.909-30.653
	c-0.234,2.541-0.424,4.584-0.613,6.628c-0.226,0.064-0.451,0.129-0.675,0.193c-0.419-1.822-1.374-3.708-1.162-5.455
	c0.843-6.959,0.487-13.936,3.935-20.721c2.715-5.345,2.988-11.958,4.173-18.044c2.762-14.162,8.161-27.238,15.147-39.848
	c8.271-14.925,17.96-28.634,29.121-41.607c6.956-8.087,15.45-13.458,24.02-18.929c4.018-2.564,9.347-3.013,13.995-4.666
	c5.441-1.936,10.635-5.065,16.216-5.985c6.373-1.052,13.055-0.244,20.257,0.019c-0.925-0.097-1.852-0.197-2.778-0.296
	c0.29-0.494,0.579-0.991,0.87-1.486c3.678,0.176,7.351,0.351,11.465,0.546c-1.374,0.682-2.474,1.226-3.638,1.802
	c0.181,0.208,0.329,0.545,0.505,0.559c3.2,0.237,6.573-0.126,9.563,0.777c4.096,1.242,7.931,3.378,11.828,5.24
	c6.085,2.906,12.298,5.608,18.123,8.977c3.29,1.904,7.252,4.409,8.576,7.609c3.89,9.385,13.81,13.125,17.359,21.591
	c0.108,2.228-0.117,4.534,0.387,6.665c1.499,6.299,2.922,12.653,5.047,18.753c3.124,8.966,2.719,18.495,5.079,27.54
	c0.324,1.23,1.579,3.268,2.197,3.195c4.424-0.516,4.636,3.529,4.444,5.311c-1.281,11.888-3.063,23.728-4.995,35.533
	c-0.192,1.192-2.464,2.047-3.771,3.058c0.418-1.198,0.835-2.397,1.426-4.089c-8.334,4.863-14.093,13.723-12.706,18.918
	C220.055,186.787,220.908,179.498,224.99,175.013z M192.521,115.438c1.017-0.842,3.023-1.907,2.892-2.494
	c-1.068-4.79-2.54-9.493-3.887-14.221c-0.383,0.096-0.767,0.189-1.149,0.285c0.837,5.542,1.675,11.082,2.514,16.624
	c-0.71-0.869-1.916-1.671-2.04-2.618c-0.687-5.246-2.107-10.38-2.81-15.635c-1.394-10.473-5.738-20.642-9.525-30.687
	c-4.788-12.701-9.158-12.22-20.176-4.844c-0.114,0.079-0.134,0.301-0.292,0.682c6.145,8.687,12.38,17.502,18.63,26.339
	c-4.051,3.049-1.53,5.469,0.556,6.926c4.071,2.848,5.457,6.418,5.62,11.248c0.147,4.302,1.24,8.613,2.276,12.832
	c2.407,9.808,4.966,19.577,7.583,29.329c1.88,7.008,3.959,13.965,5.948,20.941c0.313-0.043,0.628-0.088,0.941-0.13
	c0.234-1.868,0.467-3.736,0.701-5.604c0.336,0.014,0.673,0.028,1.012,0.042c0,5.129,0,10.257,0,15.385
	c0.439,0.22,0.879,0.439,1.316,0.658c0.935-1.55,2.568-3.063,2.657-4.659c0.168-3.018-0.469-6.095-0.925-9.127
	c-0.662-4.421-1.46-8.819-2.198-13.229c-0.453,0.059-0.907,0.121-1.363,0.18c0,1.989,0,3.979,0,5.966
	c-3.266-12.81-3.252-12.922,2.457-15.684C199.715,134.536,196.119,124.988,192.521,115.438z M178.842,189.805
	c4.614-1.435,8.736-2.947,12.979-3.955c2.82-0.672,3.742-2.068,3.261-4.737c-0.947-5.225-1.519-10.552-2.928-15.652
	c-1.257-4.545-3.914-8.718-5.058-13.279c-1.009-4.029-0.109-8.558-1.239-12.527c-3.083-10.831-6.622-21.541-10.324-32.177
	c-1.849-5.312-4.198-10.491-6.766-15.5c-4.279-8.354-8.921-16.527-13.826-25.546c-2.006,2.292-3.288,3.76-4.57,5.228
	c0.519,0.076,1.035,0.151,1.55,0.225c0,3.68,0,7.36,0,11.04c-0.479,0.262-0.957,0.524-1.437,0.786
	c-2.315-1.762-4.632-3.522-8.141-6.188c-2.014,1.917-4.443,4.235-7.075,6.74c5.788,4.221,7.061,8.439,3.909,11.24
	c-4.923,4.376-5.089-2.753-8.366-4.218c-0.941,1.998-1.771,3.79-2.626,5.57c-0.817,1.708-1.217,4.266-2.568,4.965
	c-7.075,3.646-10.542,9.884-13.232,16.849c-1.926,4.984-4.259,9.85-5.738,14.967c-2.676,9.253-5.277,18.571-7.066,28.021
	c-0.962,5.074-0.172,10.481-0.172,17.303c-1.985-2.298-2.824-3.271-3.859-4.471c-0.72,3.975-1.369,7.554-2.018,11.132
	c-0.657-0.109-1.313-0.22-1.97-0.329c1.11-7.095,2.22-14.193,3.331-21.287c-0.565-0.051-1.13-0.105-1.695-0.155
	c-0.756,8.1-1.623,16.193-2.142,24.308c-0.073,1.153,1.433,2.513,2.404,3.601c3.595,4.032,8.718,5.061,13.543,6.554
	c12.249,3.791,24.506,6.159,37,0.593c1.501-0.672,3.86,0.586,5.539,0.897c1.211-0.667,2.82-2.126,4.632-2.454
	c7.096-1.275,14.277-2.078,21.38-3.318C177.675,193.659,180.317,192.921,178.842,189.805z M57.205,181.757
	c0.178-1.248,0.242-3.408,0.827-5.42c2.193-7.558,4.576-15.058,6.851-22.59c2.226-7.371,4.164-14.841,6.669-22.115
	c3.57-10.375,7.105-20.803,11.477-30.851c3.564-8.188,7.648-16.201,13.433-23.25c6.905-8.413,13.376-17.181,20.285-26.117
	c-3.246-1.348-6.133-1.888-8.136-3.513c-4.451-3.607-10.522-5.541-14.538-2.97c-5.324,3.409-10.143,7.601-15.28,11.313
	c-6.186,4.472-9.086,11.141-12.421,17.616c-2.027,3.939-4.709,7.542-7.099,11.296c0.53-0.022,1.06-0.045,1.588-0.068
	c0.7,2.291,1.842,4.573,1.875,6.873c0.011,0.874-2.537,1.781-3.917,2.671c-0.814-1.719-1.631-3.437-2.979-6.28
	c-3.66,7.112-9.276,13.772-10.203,21.037c-0.908,7.12-5.603,10.899-8.515,16.046c-2.946,5.205-1.531,11.325,4.623,12.683
	c6.475,1.431,7.458,4.677,2.264,10.783c-1.788-2.886-3.394-5.479-4.467-7.208c-2.957-0.611-5.227-1.079-8.189-1.688
	c-0.77,1.593-1.848,3.83-3.035,6.286c1.888,0.973,3.34,1.723,4.872,2.509c-1.582,2.729,0.861,9.035-5.895,5.902
	c-2.61,3.723-1.583,6.521,0.947,10.169c5.345,7.704,14.984,8.045,21.424,13.693C51.343,180.036,53.961,180.436,57.205,181.757z
	 M181.456,48.313c-4.255-5.634-10.719-6.253-16.205-8.708c-3.183-1.424-7.772,0.235-9.695-4.293
	c-0.066-0.156-3.668,0.406-4.048,1.304c-1.573,3.691-3.942,3.285-7.353,3.257c-4.319-0.035-9.962,0.491-12.71,3.163
	c-5.904,5.751-9.686,13.649-15.463,19.566c-17.088,17.503-28.098,38.555-36.201,61.153c-4.828,13.465-7.916,27.559-11.661,41.406
	c-1.664,6.148-3.015,12.384-4.536,18.694c4.22,1.812,8.033,3.449,12.059,5.18c0.994-3.305,1.64-6.495,2.886-9.432
	c6.11-14.392,12.374-28.72,18.596-43.064c0.944-2.176,2.088-4.275,2.91-6.492c3.532-9.558,6.381-19.425,10.669-28.627
	c2.799-6.004,7.614-11.076,11.57-16.534c5.163-7.116,10-14.52,15.701-21.18c3.442-4.023,8.205-6.938,12.48-10.211
	c1.473-1.125,3.188-2.422,4.913-2.629C163.888,49.841,172.448,49.159,181.456,48.313z M179.467,57.565
	c18.351,37.803,27.274,76.419,31.067,116.503c0.777-1.599,0.904-3.221,1.273-4.787c1.051-4.483,2.057-8.988,3.438-13.373
	c0.253-0.806,2.163-1.395,3.345-1.468c0.561-0.034,1.62,1.33,1.725,2.155c0.157,1.239-0.324,2.562-0.544,3.892
	c-1.536-0.521-2.778-0.947-4.429-1.511c-0.762,4.855-1.455,9.281-2.15,13.708c10.229-8.419,13.197-18.622,10.222-30.78
	c-1.203-4.913-1.272-10.096-2.028-15.13c-0.408-2.722-1.496-5.365-1.703-8.09c-0.373-4.962-0.897-9.74-4.695-13.494
	c-0.366-0.363-0.158-1.316-0.2-1.997c-0.121-2.038,0.278-4.289-0.448-6.081c-2.545-6.281-5.479-12.4-8.244-18.547
	c1.287-0.299,2.123-0.492,3.448-0.801c-4.345-5.756-8.295-10.989-12.78-16.933c-1.334,5.277-2.231,8.839-3.342,13.246
	c-5.669-5.091-2.254-9.103-1.01-13.458C188.613,59.724,184.843,58.834,179.467,57.565z M52.387,188.289
	c-9.714-7.476-19.198-14.773-28.681-22.071c-0.604,0.474-1.208,0.949-1.811,1.423c1.253,3.001,2.165,6.219,3.88,8.927
	c1.08,1.707,3.398,2.606,5.102,3.941c3.616,2.84,7.033,5.971,10.848,8.507c2.422,1.608,5.541,2.133,8.122,3.551
	c3.848,2.118,7.25,5.27,11.292,6.745c4.794,1.752,10.109,2.028,15.115,3.279c2.645,0.662,4.643,0.042,3.896-2.558
	c-0.666-2.325-2.596-4.951-4.697-6.048c-3.501-1.821-7.583-2.532-11.464-3.727c-1.099,1.831-1.885,3.141-2.746,4.577
	c-2.379-3.26-4.455-6.104-6.624-9.077C53.615,186.897,52.985,187.609,52.387,188.289z M209.742,191.773
	c-0.139-0.428-0.272-0.853-0.408-1.278c-8.084,1.614-16.416,2.482-24.185,5.046c-7.999,2.644-16.737,3.343-24.206,9.631
	c0.119-2.228,0.163-3.119,0.24-4.539c-6.986,1.708-13.691,3.273-20.325,5.082c-0.591,0.161-0.743,1.915-1.03,2.729
	c2.772-0.302,4.881-0.529,6.984-0.761c0.074,0.344,0.144,0.685,0.217,1.025c-0.833,0.507-1.668,1.011-2.501,1.517
	c2.976-3.627,6.463,1.921,10.183-0.699c2.761-1.95,7.782-0.36,11.586-1.26c3.578-0.843,6.773-3.209,10.323-4.303
	c3.838-1.18,7.958-1.429,11.828-2.521c3.603-1.015,7.122-2.426,10.525-3.993C202.653,195.755,206.161,193.682,209.742,191.773z
	 M130.012,36.958c-8.119-6.711-14.716,3.406-22.329,2.342C115.483,42.419,123.056,43.022,130.012,36.958z M106.754,207.26
	c0.093-0.88,0.188-1.765,0.282-2.646c-8.23,1.155-14.904-5.672-23.975-4.195c3.668,8.751,10.579,5.422,16.038,6.224
	C101.626,207.015,104.202,207.064,106.754,207.26z"/>
<path fill-rule="evenodd" clip-rule="evenodd" d="M115.621,152.141c-4.02-1.569-6.671-5.958-5.374-9.523
	c0.508-1.395,2.033-2.944,3.401-3.327c1.029-0.284,2.963,0.862,3.77,1.925C120.368,145.098,118.745,148.616,115.621,152.141z"/>
<path fill-rule="evenodd" clip-rule="evenodd" d="M129.695,195.417c-3.032-2.877-6.582-5.309-3.77-9.31
	c3.406-4.85,6.839-0.347,10.744,0.533C134.161,189.796,132.051,192.453,129.695,195.417z"/>
<path fill-rule="evenodd" clip-rule="evenodd" d="M116.274,124.393c2.558-2.184,4.088-4.162,6.061-4.824
	c0.717-0.243,3.733,2.871,3.515,4.049c-0.434,2.355-2.378,4.433-3.7,6.624C120.513,128.611,118.875,126.982,116.274,124.393z"/>
<path fill-rule="evenodd" clip-rule="evenodd" d="M129.067,115.334c-0.843-2.778-2.493-5.258-1.856-6.768
	c1.088-2.567,3.617-4.522,5.899-7.154C136.294,107.166,135.404,110.048,129.067,115.334z"/>
<path fill-rule="evenodd" clip-rule="evenodd" d="M103.669,163.451c2.125,1.015,4.914,1.559,6.265,3.251
	c0.968,1.215,0.007,3.965-0.096,6.076C102.374,171.792,100.77,169.32,103.669,163.451z"/>
<path fill-rule="evenodd" clip-rule="evenodd" d="M154.976,103.573c-1.965,3.84-3.319,6.489-4.753,9.293
	c-4.004-3.655-5.229-8.839-2.378-10.335C149.496,101.663,152.363,103.114,154.976,103.573z"/>
<path fill-rule="evenodd" clip-rule="evenodd" d="M159.588,97.713c-0.907-2.66-1.913-5.292-2.584-8.011
	c-0.076-0.31,1.883-1.702,2.632-1.519c1.463,0.354,3.81,1.389,3.883,2.296c0.184,2.308-0.682,4.7-1.127,7.059
	C161.456,97.597,160.521,97.654,159.588,97.713z"/>
<path fill-rule="evenodd" clip-rule="evenodd" d="M126.552,160.963c1.935,1.381,4.137,2.739,4.046,2.916
	c-1.194,2.311-2.711,4.455-4.147,6.642c-1.287-1.55-3.483-3.037-3.59-4.663C122.766,164.435,125.023,162.856,126.552,160.963z"/>
<path fill-rule="evenodd" clip-rule="evenodd" d="M156.503,189.317c-1.246-2.012-2.741-3.925-3.618-6.087
	c-0.354-0.873,0.521-3.226,1.048-3.297c1.717-0.225,3.531,0.294,5.309,0.525c-0.208,1.059-0.428,2.113-0.613,3.175
	c-0.282,1.604-0.536,3.209-0.801,4.815C157.385,188.739,156.942,189.03,156.503,189.317z"/>
<path fill-rule="evenodd" clip-rule="evenodd" d="M168.838,157.292c3.82,2.961,4.762,6.074,1.933,9.476
	c-0.411,0.493-3.268-0.043-3.856-0.894C164.702,162.701,165.684,159.851,168.838,157.292z"/>
<path fill-rule="evenodd" clip-rule="evenodd" d="M101.198,182.64c4.51,0.909,6.237,3.42,5.188,7.313
	c-0.178,0.664-2.863,1.438-3.812,0.977C98.69,189.035,99.371,185.986,101.198,182.64z"/>
<path fill-rule="evenodd" clip-rule="evenodd" d="M145.621,164.796c1.634-1.646,2.882-2.9,4.13-4.157
	c0.85,1.083,2.582,2.41,2.367,3.198c-0.519,1.882-1.958,3.508-3.025,5.238C148.129,167.886,147.165,166.697,145.621,164.796z"/>
<path fill-rule="evenodd" clip-rule="evenodd" d="M156.379,124.043c7.388-0.225,8.473,1.812,4.953,8.527
	C159.577,129.547,158.232,127.238,156.379,124.043z"/>
<path fill-rule="evenodd" clip-rule="evenodd" d="M163.976,144.385c-1.813,1.927-2.982,3.169-4.151,4.412
	c-0.752-1.584-2.088-3.176-2.059-4.745c0.017-1.096,1.9-2.156,2.953-3.232C161.626,141.814,162.538,142.809,163.976,144.385z"/>
<path fill-rule="evenodd" clip-rule="evenodd" d="M178.632,148.974c-0.89-3.262-1.453-5.333-2.479-9.105
	c3.235,0.966,5.304,1.585,8.124,2.428C182.076,144.899,180.797,146.416,178.632,148.974z"/>
<path fill-rule="evenodd" clip-rule="evenodd" d="M136.583,149.346c0.301-2.527,0.571-5.063,1.016-7.567
	c0.021-0.107,2.432,0.07,2.432,0.121c0.018,2.584-0.106,5.167-0.217,7.751C138.735,149.549,137.658,149.447,136.583,149.346z"/>
<path fill-rule="evenodd" clip-rule="evenodd" d="M177.61,125.897c-1.316,1.091-2.046,1.69-2.775,2.294
	c-0.862-1.646-1.974-3.221-2.474-4.971c-0.198-0.676,0.974-1.747,1.523-2.64C175.004,122.181,176.125,123.779,177.61,125.897z"/>
<path fill-rule="evenodd" clip-rule="evenodd" d="M148.771,124.483c-1.111,1.411-2.221,2.823-3.331,4.235
	c-0.481,0.021-0.964,0.041-1.448,0.064c-0.22-1.986-0.439-3.976-0.657-5.963c1.776,0,3.552,0,5.326,0
	C148.698,123.376,148.732,123.928,148.771,124.483z"/>
<path fill-rule="evenodd" clip-rule="evenodd" d="M164.539,111.494c-0.183-1.82-0.559-3.657-0.383-5.441
	c0.032-0.352,2.172-0.499,3.341-0.741c-0.101,1.967-0.209,3.931-0.311,5.895C166.302,111.302,165.424,111.398,164.539,111.494z"/>
<path fill-rule="evenodd" clip-rule="evenodd" d="M173.254,183.983c-0.442-2.009-0.883-4.019-1.327-6.027
	c1.1-0.171,2.197-0.344,3.297-0.516c0.151,2.058,0.301,4.111,0.45,6.171C174.868,183.734,174.063,183.859,173.254,183.983z"/>
<path fill-rule="evenodd" clip-rule="evenodd" d="M63.37,143.432c-0.242,1.409-0.451,2.623-0.66,3.841
	c-0.542-0.592-1.086-1.184-2.401-2.615c1.567,8.492-5.838,14.951-2.749,23.5c0.76,2.104-1.556,5.322-2.648,8.603
	c-2.55-3.363-5.425-5.61-6.134-8.411c-1.358-5.368,3.767-3.055,6.51-4.148c-0.808-3.846-1.664-7.669-2.409-11.512
	c-1.24-6.399,1.063-9.13,7.719-9.257C61.276,143.421,61.954,143.432,63.37,143.432z"/>
<path fill-rule="evenodd" clip-rule="evenodd" d="M45.388,159.433c-1.942,2.917-3.163,4.748-4.383,6.583
	c-2.061-2.895-4.239-5.721-6.01-8.783c-0.186-0.32,2.596-3.145,3.044-2.919C40.441,155.533,42.542,157.354,45.388,159.433z"/>
<path fill-rule="evenodd" clip-rule="evenodd" d="M49.351,119.823c1.44,2.26,3.305,3.871,3.128,5.215
	c-0.262,1.97-1.984,3.748-3.084,5.607c-1.574-2.407-3.263-4.759-4.546-7.312C44.72,123.08,47.057,121.587,49.351,119.823z"/>
<path fill-rule="evenodd" clip-rule="evenodd" d="M69.281,109.423c-0.855,3.153-1.461,5.956-2.435,8.627
	c-0.299,0.826-1.599,1.288-2.439,1.917c-0.576-0.899-1.547-1.75-1.661-2.702C62.078,111.694,63.994,109.291,69.281,109.423z"/>
<path fill-rule="evenodd" clip-rule="evenodd" d="M65.461,126.951c-1.243,3.361-2.129,5.76-3.318,8.978
	c-1.215-0.598-3.618-1.052-3.896-2.08c-0.476-1.767-0.306-4.753,0.834-5.651C60.61,126.996,63.321,127.289,65.461,126.951z"/>
<path fill-rule="evenodd" clip-rule="evenodd" d="M70.535,106.526c-1.063-2.516-1.789-4.232-2.513-5.948
	c2.688-1.096,5.375-2.192,8.063-3.286c0.278,0.51,0.553,1.02,0.83,1.53C75.025,101.105,73.136,103.388,70.535,106.526z"/>
<path fill-rule="evenodd" clip-rule="evenodd" d="M81.89,65.365c-2.42,0.97-4.81,2.043-7.294,2.802
	c-0.376,0.116-1.196-1.225-1.812-1.893c1.295-1.182,2.424-2.949,3.931-3.373c1.369-0.386,3.15,0.688,4.749,1.121
	C81.605,64.47,81.748,64.917,81.89,65.365z"/>
<path fill-rule="evenodd" clip-rule="evenodd" d="M91.68,57.812c2.687-0.241,5.374-0.481,8.062-0.724
	c0.294,0.433,0.59,0.864,0.885,1.295c-1.444,1.493-2.825,4.098-4.348,4.183c-1.682,0.094-3.494-2.121-5.25-3.328
	C91.248,58.763,91.463,58.287,91.68,57.812z"/>
<path fill-rule="evenodd" clip-rule="evenodd" d="M80.195,71.737c-1.732,1.938-3.391,3.948-5.238,5.77
	c-0.627,0.619-1.853,1.195-2.582,0.991c-0.755-0.21-1.635-1.348-1.72-2.16c-0.067-0.656,0.811-1.699,1.53-2.101
	c2.457-1.371,5.03-2.536,7.559-3.78C79.894,70.885,80.044,71.31,80.195,71.737z"/>
<path fill-rule="evenodd" clip-rule="evenodd" d="M56.211,105.168c-1.096,1.933-2.19,3.866-3.287,5.799
	c-0.563-0.099-1.127-0.198-1.689-0.296c-0.194-1.598-0.923-3.403-0.413-4.73c0.413-1.076,2.32-1.575,3.564-2.328
	C54.996,104.131,55.603,104.649,56.211,105.168z"/>
<path fill-rule="evenodd" clip-rule="evenodd" d="M85.275,55.362c2.976-0.795,2.174-8.469,8.674-4.137
	C89.654,51.233,90.522,58.404,85.275,55.362z"/>
<path fill-rule="evenodd" clip-rule="evenodd" d="M86.001,77.312c-0.7-1.768-1.401-3.535-2.104-5.301
	c1.246-0.205,2.491-0.41,3.737-0.614c0.242,1.782,0.483,3.564,0.725,5.348C87.574,76.933,86.787,77.123,86.001,77.312z"/>
<path fill-rule="evenodd" clip-rule="evenodd" d="M210.156,100.745c-2.375,2.231-4.006,3.764-5.642,5.297
	c-0.991-1.66-3.02-3.525-2.738-4.931c0.417-2.086,2.469-3.849,3.821-5.749C206.848,96.839,208.1,98.316,210.156,100.745z"/>
<path fill-rule="evenodd" clip-rule="evenodd" d="M199.512,77.361c2.484,2.301,4.862,4.497,7.111,6.577
	c-2.163,1.25-4.001,2.313-6.407,3.705C196.868,85.842,196.474,83.687,199.512,77.361z"/>
<path fill-rule="evenodd" clip-rule="evenodd" d="M204.577,113.371c1.944,0.383,4.633,0.132,5.646,1.315
	c1.285,1.502,1.206,4.17,1.72,6.334c-0.783,0.403-1.569,0.809-2.351,1.214c-2.034-2.26-4.069-4.517-6.104-6.773
	C203.853,114.762,204.216,114.066,204.577,113.371z"/>
<path fill-rule="evenodd" clip-rule="evenodd" d="M215.448,128.278c-1.139,3.448-1.933,5.858-2.729,8.267
	c-0.825-0.458-2.214-0.779-2.372-1.408c-0.51-2.045-0.569-4.201-0.806-6.314C211.094,128.679,212.647,128.535,215.448,128.278z"/>
<path fill-rule="evenodd" clip-rule="evenodd" d="M215.22,143.102c4.575,0.683,3.913,3.938,3.384,7.129
	c-0.541,0.273-1.082,0.547-1.623,0.82c-1.122-2.305-2.242-4.612-3.364-6.917C214.151,143.79,214.685,143.445,215.22,143.102z"/>
</svg>
