<?xml version="1.0" encoding="utf-8"?>
<!-- Generator: Adobe Illustrator 16.0.0, SVG Export Plug-In . SVG Version: 6.00 Build 0)  -->
<!DOCTYPE svg PUBLIC "-//W3C//DTD SVG 1.1//EN" "http://www.w3.org/Graphics/SVG/1.1/DTD/svg11.dtd">
<svg version="1.1" id="Layer_1" xmlns="http://www.w3.org/2000/svg" xmlns:xlink="http://www.w3.org/1999/xlink" x="0px" y="0px"
	 width="250px" height="250px" viewBox="0 0 250 250" enable-background="new 0 0 250 250" xml:space="preserve">
<path fill="none" stroke="#000000" stroke-miterlimit="10" d="M243.5,233.114c0,6.288-5.098,11.386-11.386,11.386H16.886
	c-6.288,0-11.386-5.098-11.386-11.386V17.886C5.5,11.598,10.598,6.5,16.886,6.5h215.229c6.288,0,11.386,5.098,11.386,11.386V233.114
	z"/>
<path fill-rule="evenodd" clip-rule="evenodd" d="M149.135,124.649c3.893,4.005,7.418,8.081,5.668,14.398
	c-0.657,2.379-0.682,4.936-0.147,8.018c13.708-4.687,25.349-11.771,31.288-25.447c5.612-12.927,8.188-26.413,4.603-39.995
	c0.81-1.598,1.523-3.003,2.236-4.409l-0.054,0.086c0.442,0.571,1.13,1.08,1.294,1.722c3.175,12.491,3.508,25.106,1.53,37.815
	c-0.592,3.817-1.095,7.65-1.719,12.036c-0.485-2.351-0.85-4.125-1.376-6.681c-4.188,5.862-5.084,11.939-5.581,18.097
	c-0.38,4.785-0.565,9.59-0.734,14.391c-0.111,3.24-2.199,6.469,0.674,9.831c0.656,0.77-1.149,4.179-2.413,5.95
	c-5.137,7.174-10.24,14.396-15.851,21.194c-7.57,9.183-16.256,17.273-25.949,24.255c-2.225,1.603-4.287,3.437-6.396,5.194
	c-1.973,1.645-3.553,4.872-6.677,1.42c-0.22-0.243-1.426,0.298-2.114,0.605c-8.394,3.762-16.708,7.71-25.194,11.253
	c-4.076,1.702-7.059,3.242-3.238,7.93c-6.07-7.09-12.143-14.179-18.212-21.271c-0.358,0.279-0.716,0.558-1.074,0.84
	c1.419,2.382,2.838,4.77,4.257,7.152c-0.312,0.221-0.625,0.439-0.937,0.659c-3.356-4.476-6.622-9.022-10.096-13.402
	c-2.795-3.523-5.605-7.094-8.837-10.203c-4.739-4.56-5.617-10.375-5.574-16.849c-2.13,0.507-3.464,0.825-6.288,1.501
	c1.562-15.748,3.068-30.938,4.619-46.555c-0.342,0,0.612,0,1.52,0c2.507-10.457,6.82-21.125-2.44-31.129
	c4.441,1.811,5.352-1.276,6.099-3.813c2.772-9.418,4.972-19.019,8.067-28.325c2.052-6.164,5.214-11.965,7.973-17.883
	c1.685-3.617,3.546-7.153,5.329-10.726c0.694,0.206,1.391,0.412,2.084,0.618c-1.12,6.568-2.238,13.138-3.436,20.164
	c-1.181-0.342-2.153-0.625-3.143-0.912c-0.099,0.279-0.354,0.621-0.27,0.818c1.909,4.427-1.565,7.344-3.139,10.691
	c-5.807,12.348-10.485,24.942-7.881,38.888c0.843,4.518,2.849,8.819,4.572,13.966c3.592-9.268,8.888-15.943,16.159-20.993
	c2.925-2.033,8.763,2.076,8.833,6.263c0.196,11.751,0.256,23.506,0.362,35.258c0.006,0.645,0.152,1.388-0.11,1.914
	c-2.387,4.806-2.274,4.673,2.979,10.434c3.014,3.307,5.488,1.271,8.194-0.087c0.578-0.291,1.104-0.799,1.708-0.907
	c8.513-1.552,10.818-7.737,11.479-15.638c-0.866,0.533-1.509,0.933-1.878,1.16c1.139-4.11,2.094-8.422,3.6-12.535
	c0.539-1.47,2.55-2.336,3.644-3.677c3.126-3.83,6.126-7.764,9.591-12.186c0.146,1.27,0.239,2.074,0.31,2.708
	c3.206-0.163,7.272-1.59,9.514-0.159c2.485,1.583,3.303,5.78,5.556,8.684c-0.956-4.076-1.91-8.155-2.867-12.233L149.135,124.649z
	 M66.981,134.594c-0.478,0.005-0.956,0.013-1.433,0.018c-0.217,2.3-0.636,4.603-0.596,6.896c0.043,2.514,0.851,5.036,0.732,7.525
	c-0.467,9.839-1.197,19.662-1.769,29.492c-0.309,5.297,0.476,10.899-1.033,15.811c-1.283,4.178,0.648,5.527,2.915,7.485
	c2.017,1.745,4.328,3.225,6.058,5.213c7.409,8.518,14.617,17.208,22.02,25.73c0.632,0.724,2.453,1.253,3.247,0.878
	c9.299-4.415,18.514-9.009,27.736-13.587c5.034-2.501,9.892-5.429,15.1-7.473c4.403-1.726,7.649-3.772,8.794-8.761
	c1.682-7.336,4.082-14.501,5.771-21.834c2.215-9.63,4.039-19.352,6.027-29.013c-1.316-0.3-1.681-0.514-1.906-0.413
	c-8.989,4.039-17.94,8.177-26.976,12.117c-2.194,0.957-4.747,1.07-6.997,1.938c-2.3,0.883-4.333,2.49-6.652,3.283
	c-4.447,1.522-8.98,2.844-13.558,3.904c-1.118,0.259-2.896-0.463-3.77-1.332c-4.221-4.214-8.335-8.549-12.295-13.014
	c-2.662-3-5.001-6.286-7.485-9.445c-0.193,0.151-0.385,0.305-0.578,0.453c1.553,2.77,3.106,5.535,4.658,8.306
	c-0.363,0.211-0.729,0.426-1.091,0.64c-2.03-2.848-4.036-5.713-6.105-8.53c-0.624-0.849-1.774-2.355-2.1-2.213
	c-3.582,1.554-3.647-1.607-4.434-3.334C69.668,141.83,68.39,138.181,66.981,134.594z M159.513,192.527
	c1.148-1.417,2.039-2.3,2.666-3.342c2.664-4.408,4.385-9.838,8.053-13.081c5.698-5.036,9.189-10.698,9.339-18.036
	c0.112-5.439-0.93-10.906-1.53-17.123c-3.501,4.118-5.997,9.695-8.915,9.926c-5.758,0.457-5.018,4.068-5.43,7.036
	C162.144,169.073,160.957,180.289,159.513,192.527z"/>
<path fill-rule="evenodd" clip-rule="evenodd" d="M107.507,28.93c2.631-1.733,5.812-2.988,7.799-5.279
	c9.445-10.882,21.818-13.667,35.357-13.5c6.233,0.076,11.197,3.011,15.628,7.229c2.056,1.96,4.869,3.166,6.794,5.222
	c3.066,3.265,6.476,6.586,8.306,10.546c3.311,7.181,5.588,14.841,8.233,22.324c0.357,1.007,0.325,2.149-0.045,3.361
	c-1.385-4.064-2.771-8.127-4.24-12.438c-0.898,0.785-1.417,1.24-2.057,1.8c-0.264-0.556-0.519-0.951-0.64-1.382
	c-2.548-9.125-5.818-17.731-14.216-23.395c-2.193-1.478-3.399-4.385-5.551-5.959c-7.454-5.452-15.882-5.707-24.029-2.412
	c-8.071,3.265-16.802,5.414-23.337,11.947c-1.822,1.821-4.659,2.627-7.232,4.006c-0.125-0.438-0.378-1.326-0.632-2.212
	L107.507,28.93z"/>
<path fill-rule="evenodd" clip-rule="evenodd" d="M107.645,28.788c-5.315,3.763-10.679,7.288-11.532,14.797
	c-0.228,2.026-2.887,5.243-4.575,5.336c-3.734,0.208-2.412,3.065-3.332,4.69c-0.47-0.053-0.938-0.107-1.406-0.162
	c0.266-2.003-0.066-4.389,0.917-5.938c2.536-3.998,5.483-7.774,8.584-11.365c3.613-4.186,7.564-8.082,11.769-12.528
	c-0.242,2.247-0.405,3.784-0.567,5.315C107.507,28.93,107.645,28.788,107.645,28.788z"/>
<path fill-rule="evenodd" clip-rule="evenodd" d="M192.782,77.213c-1.66-4.56-3.322-9.12-5.139-14.104c1.46,0,3.09-0.12,3.114,0.018
	c0.758,4.697,1.366,9.418,1.982,14.156C192.729,77.3,192.782,77.213,192.782,77.213z"/>
<path fill-rule="evenodd" clip-rule="evenodd" d="M149.249,124.546c-2.994-0.428-5.993-0.857-9.716-1.388
	c1.819-0.98,3.761-2.887,5.379-2.646c1.58,0.236,2.833,2.665,4.229,4.133C149.135,124.649,149.249,124.546,149.249,124.546z"/>
<path fill-rule="evenodd" clip-rule="evenodd" d="M85.158,210.091c-0.873-0.636-1.353-0.845-1.635-1.209
	c-4.007-5.196-7.988-10.412-11.774-15.366c1.033-1.766,1.971-3.364,3.253-5.557c1.549,2.274,3.41,5.081,5.349,7.83
	c1.749,2.483,3.223,5.321,5.464,7.251C89.16,205.919,87.995,207.712,85.158,210.091z"/>
<path fill-rule="evenodd" clip-rule="evenodd" d="M90.437,186.543c-1.491-0.513-3.332-0.631-4.406-1.603
	c-3.945-3.558-7.759-7.284-11.336-11.212c-0.959-1.053-0.896-3.04-1.303-4.595c1.556,0.301,3.627,0.069,4.577,0.994
	c4.772,4.631,9.253,9.563,13.835,14.391C91.348,185.194,90.893,185.865,90.437,186.543z"/>
<path fill-rule="evenodd" clip-rule="evenodd" d="M88.593,195.412c-3.185-2.197-6.2-3.836-8.646-6.088
	c-2.589-2.379-4.729-5.281-6.857-8.112c-0.482-0.643-0.508-2.34-0.023-2.818c0.599-0.587,2.488-0.912,2.898-0.479
	c4.626,4.885,9.079,9.934,13.546,14.967C89.611,192.992,89.317,193.452,88.593,195.412z"/>
<path fill-rule="evenodd" clip-rule="evenodd" d="M114.758,187.3c7.644-4.28,14.515-8.129,21.697-12.155
	C136.55,181.05,121.484,189.871,114.758,187.3z"/>
<path fill-rule="evenodd" clip-rule="evenodd" d="M115.869,209.106c4.39-8.269,13.135-8.36,19.992-12.551
	C135.998,201.165,122.099,209.439,115.869,209.106z"/>
<path fill-rule="evenodd" clip-rule="evenodd" d="M118.212,197.843c1.663-6.32,14.244-11.131,22.07-9.019
	C132.176,192.137,125.193,194.988,118.212,197.843z"/>
</svg>
